<svg width="134" height="134" viewBox="0 0 134 134" fill="none" xmlns="http://www.w3.org/2000/svg">
<mask id="mask0_68_38" style="mask-type:alpha" maskUnits="userSpaceOnUse" x="16" y="16" width="102" height="102">
<path d="M112.517 46.308C123.945 71.4466 112.83 101.09 87.6916 112.517C62.553 123.945 32.91 112.831 21.4821 87.692C10.0542 62.5534 21.1689 32.9104 46.3075 21.4825C71.4461 10.0546 101.089 21.1694 112.517 46.308ZM49.4306 74.9867C53.8416 84.6898 65.2832 88.9798 74.9863 84.5689C84.6893 80.1579 88.9794 68.7163 84.5684 59.0133C80.1575 49.3102 68.7158 45.0201 59.0128 49.4311C49.3098 53.8421 45.0197 65.2837 49.4306 74.9867Z" fill="#D9D9D9"/>
</mask>
<g mask="url(#mask0_68_38)">
<path d="M118.34 69.4021C117.911 78.5626 115.039 87.4414 110.022 95.1176C105.005 102.794 98.0247 108.988 89.8064 113.057C81.5881 117.125 72.4307 118.921 63.2843 118.257C54.1379 117.594 45.3357 114.494 37.791 109.282L67.0042 67.0005L118.34 69.4021Z" fill="#E21F2A"/>
<path d="M39.0991 110.158C31.3733 105.163 25.13 98.1852 21.0211 89.9537C16.9122 81.7222 15.0883 72.5387 15.7399 63.3617C16.3914 54.1848 19.4945 45.351 24.7251 37.7826C29.9558 30.2142 37.1222 24.1887 45.4763 20.3351L67.0024 67.0012L39.0991 110.158Z" fill="#FBD213"/>
<path d="M43.63 21.2323C51.6631 17.1296 60.6347 15.2135 69.643 15.6766C78.6513 16.1397 87.379 18.9656 94.9492 23.8703C102.519 28.7751 108.665 35.586 112.769 43.6185C116.873 51.651 118.791 60.6223 118.329 69.6306L67.0047 67.0005L43.63 21.2323Z" fill="#344FA3"/>
</g>
</svg>
