<svg xmlns="http://www.w3.org/2000/svg" xmlns:xlink="http://www.w3.org/1999/xlink" width="1920" zoomAndPan="magnify" viewBox="0 0 1440 1439.999935" height="1920" preserveAspectRatio="xMidYMid meet" version="1.2"><defs><clipPath id="b0730d2cb1"><path d="M 197 903 L 267 903 L 267 985.210938 L 197 985.210938 Z M 197 903 "/></clipPath><clipPath id="c3fdb45dd3"><path d="M 174 0.640625 L 209 0.640625 L 209 62 L 174 62 Z M 174 0.640625 "/></clipPath><clipPath id="d2f1c9e858"><path d="M 456.617188 128.039062 L 550.847656 128.039062 L 550.847656 222.265625 L 456.617188 222.265625 Z M 456.617188 128.039062 "/></clipPath><clipPath id="ba1f69e2be"><path d="M 503.730469 128.039062 C 477.710938 128.039062 456.617188 149.132812 456.617188 175.152344 C 456.617188 201.171875 477.710938 222.265625 503.730469 222.265625 C 529.753906 222.265625 550.847656 201.171875 550.847656 175.152344 C 550.847656 149.132812 529.753906 128.039062 503.730469 128.039062 Z M 503.730469 128.039062 "/></clipPath><clipPath id="a90e8df414"><path d="M 0.617188 0.0390625 L 94.847656 0.0390625 L 94.847656 94.265625 L 0.617188 94.265625 Z M 0.617188 0.0390625 "/></clipPath><clipPath id="58c0030132"><path d="M 47.730469 0.0390625 C 21.710938 0.0390625 0.617188 21.132812 0.617188 47.152344 C 0.617188 73.171875 21.710938 94.265625 47.730469 94.265625 C 73.753906 94.265625 94.847656 73.171875 94.847656 47.152344 C 94.847656 21.132812 73.753906 0.0390625 47.730469 0.0390625 Z M 47.730469 0.0390625 "/></clipPath><clipPath id="a317b4f0e2"><rect x="0" width="95" y="0" height="95"/></clipPath><clipPath id="095300bdf2"><path d="M 746.625 468.339844 L 840.851562 468.339844 L 840.851562 562.566406 L 746.625 562.566406 Z M 746.625 468.339844 "/></clipPath><clipPath id="606064d1ba"><path d="M 793.738281 468.339844 C 767.71875 468.339844 746.625 489.433594 746.625 515.453125 C 746.625 541.472656 767.71875 562.566406 793.738281 562.566406 C 819.757812 562.566406 840.851562 541.472656 840.851562 515.453125 C 840.851562 489.433594 819.757812 468.339844 793.738281 468.339844 Z M 793.738281 468.339844 "/></clipPath><clipPath id="f6f3ba15ad"><path d="M 0.625 0.339844 L 94.851562 0.339844 L 94.851562 94.566406 L 0.625 94.566406 Z M 0.625 0.339844 "/></clipPath><clipPath id="c7fbb75452"><path d="M 47.738281 0.339844 C 21.71875 0.339844 0.625 21.433594 0.625 47.453125 C 0.625 73.472656 21.71875 94.566406 47.738281 94.566406 C 73.757812 94.566406 94.851562 73.472656 94.851562 47.453125 C 94.851562 21.433594 73.757812 0.339844 47.738281 0.339844 Z M 47.738281 0.339844 "/></clipPath><clipPath id="e4299f0ecc"><rect x="0" width="95" y="0" height="95"/></clipPath><clipPath id="91dfa6924d"><path d="M 367.09375 816.882812 L 461.324219 816.882812 L 461.324219 911.113281 L 367.09375 911.113281 Z M 367.09375 816.882812 "/></clipPath><clipPath id="79cf9fba22"><path d="M 414.210938 816.882812 C 388.1875 816.882812 367.09375 837.976562 367.09375 863.996094 C 367.09375 890.019531 388.1875 911.113281 414.210938 911.113281 C 440.230469 911.113281 461.324219 890.019531 461.324219 863.996094 C 461.324219 837.976562 440.230469 816.882812 414.210938 816.882812 Z M 414.210938 816.882812 "/></clipPath><clipPath id="fa8145666c"><path d="M 0.09375 0.882812 L 94.324219 0.882812 L 94.324219 95.113281 L 0.09375 95.113281 Z M 0.09375 0.882812 "/></clipPath><clipPath id="3830cb5e49"><path d="M 47.210938 0.882812 C 21.1875 0.882812 0.09375 21.976562 0.09375 47.996094 C 0.09375 74.019531 21.1875 95.113281 47.210938 95.113281 C 73.230469 95.113281 94.324219 74.019531 94.324219 47.996094 C 94.324219 21.976562 73.230469 0.882812 47.210938 0.882812 Z M 47.210938 0.882812 "/></clipPath><clipPath id="eea5b66fd5"><rect x="0" width="95" y="0" height="96"/></clipPath><clipPath id="31d293b4d5"><rect x="0" width="1426" y="0" height="986"/></clipPath></defs><g id="181d8ae327"><g transform="matrix(1,0,0,1,7,227)"><g clip-path="url(#31d293b4d5)"><path style=" stroke:none;fill-rule:nonzero;fill:#2f2e41;fill-opacity:1;" d="M 129.738281 430.648438 C 103.375 452.210938 146.511719 641.507812 146.511719 641.507812 C 146.511719 641.507812 156.097656 930.242188 176.46875 943.421875 C 196.839844 956.601562 242.371094 942.222656 260.34375 939.828125 C 278.320312 937.433594 262.742188 758.917969 236.378906 693.023438 C 210.019531 627.132812 230.390625 531.285156 230.390625 531.285156 L 372.980469 558.839844 C 372.980469 558.839844 286.707031 631.921875 290.300781 647.5 C 293.894531 663.074219 386.160156 715.789062 402.9375 718.183594 C 419.710938 720.582031 452.0625 622.339844 480.820312 555.246094 C 509.578125 488.15625 284.308594 445.023438 284.308594 445.023438 L 253.15625 386.320312 C 253.15625 386.320312 156.097656 409.082031 129.738281 430.648438 Z M 129.738281 430.648438 "/><g clip-rule="nonzero" clip-path="url(#b0730d2cb1)"><path style=" stroke:none;fill-rule:nonzero;fill:#2f2e41;fill-opacity:1;" d="M 201.300781 948.394531 C 201.300781 948.394531 192.605469 978.820312 201.300781 978.820312 C 209.996094 978.820312 225.9375 987.515625 250.574219 984.617188 C 275.210938 981.71875 267.964844 951.292969 250.574219 946.945312 C 233.183594 942.597656 237.53125 907.820312 237.53125 907.820312 C 231.734375 896.230469 204.199219 910.71875 204.199219 910.71875 Z M 201.300781 948.394531 "/></g><path style=" stroke:none;fill-rule:nonzero;fill:#2f2e41;fill-opacity:1;" d="M 324.746094 706.421875 C 324.746094 706.421875 309.832031 734.335938 318.328125 736.167969 C 326.828125 738 340.578125 749.859375 365.269531 752.222656 C 389.964844 754.585938 389.300781 723.3125 373.21875 715.398438 C 357.136719 707.480469 368.71875 674.402344 368.71875 674.402344 C 365.496094 661.851562 335.527344 670.207031 335.527344 670.207031 Z M 324.746094 706.421875 "/><path style=" stroke:none;fill-rule:nonzero;fill:#ffb9b9;fill-opacity:1;" d="M 145.914062 171.265625 C 148.308594 176.058594 137.527344 235.960938 137.527344 235.960938 L 147.113281 252.734375 C 147.113281 252.734375 202.230469 231.167969 193.84375 227.574219 C 185.457031 223.980469 186.652344 179.652344 186.652344 179.652344 C 186.652344 179.652344 143.515625 166.472656 145.914062 171.265625 Z M 145.914062 171.265625 "/><path style=" stroke:none;fill-rule:nonzero;fill:#2f2e41;fill-opacity:1;" d="M 240.128906 116.273438 C 240.128906 117.476562 240.097656 118.675781 240.039062 119.878906 C 239.980469 121.078125 239.894531 122.277344 239.773438 123.472656 C 239.65625 124.667969 239.511719 125.863281 239.332031 127.050781 C 239.15625 128.242188 238.953125 129.425781 238.71875 130.605469 C 238.484375 131.78125 238.21875 132.957031 237.925781 134.121094 C 237.636719 135.289062 237.3125 136.445312 236.964844 137.597656 C 236.617188 138.746094 236.238281 139.886719 235.835938 141.019531 C 235.429688 142.152344 234.996094 143.273438 234.535156 144.382812 C 234.078125 145.496094 233.589844 146.59375 233.074219 147.679688 C 232.5625 148.765625 232.019531 149.839844 231.453125 150.902344 C 230.886719 151.960938 230.292969 153.007812 229.675781 154.039062 C 229.058594 155.070312 228.414062 156.085938 227.746094 157.085938 C 227.078125 158.082031 226.386719 159.066406 225.671875 160.03125 C 224.953125 160.996094 224.214844 161.945312 223.453125 162.875 C 222.691406 163.804688 221.90625 164.714844 221.097656 165.605469 C 220.289062 166.496094 219.460938 167.367188 218.609375 168.214844 C 217.761719 169.066406 216.890625 169.894531 216 170.703125 C 215.109375 171.507812 214.199219 172.292969 213.269531 173.058594 C 212.339844 173.820312 211.390625 174.558594 210.425781 175.273438 C 209.460938 175.992188 208.476562 176.683594 207.476562 177.351562 C 206.476562 178.019531 205.460938 178.660156 204.429688 179.28125 C 203.398438 179.898438 202.355469 180.492188 201.292969 181.058594 C 200.234375 181.625 199.160156 182.164062 198.070312 182.679688 C 196.984375 183.191406 195.886719 183.679688 194.777344 184.140625 C 193.664062 184.597656 192.542969 185.03125 191.410156 185.4375 C 190.277344 185.84375 189.136719 186.21875 187.988281 186.566406 C 186.835938 186.917969 185.679688 187.238281 184.511719 187.53125 C 183.34375 187.820312 182.171875 188.085938 180.992188 188.320312 C 179.8125 188.554688 178.628906 188.757812 177.441406 188.9375 C 176.25 189.113281 175.058594 189.257812 173.863281 189.378906 C 172.664062 189.496094 171.464844 189.582031 170.265625 189.644531 C 169.0625 189.703125 167.863281 189.730469 166.660156 189.730469 C 165.457031 189.730469 164.257812 189.703125 163.054688 189.644531 C 161.855469 189.582031 160.65625 189.496094 159.460938 189.378906 C 158.261719 189.257812 157.070312 189.113281 155.878906 188.9375 C 154.691406 188.757812 153.507812 188.554688 152.328125 188.320312 C 151.148438 188.085938 149.976562 187.820312 148.808594 187.53125 C 147.640625 187.238281 146.484375 186.917969 145.332031 186.566406 C 144.183594 186.21875 143.042969 185.84375 141.910156 185.4375 C 140.777344 185.03125 139.65625 184.597656 138.546875 184.140625 C 137.433594 183.679688 136.335938 183.191406 135.25 182.679688 C 134.160156 182.164062 133.085938 181.625 132.027344 181.058594 C 130.96875 180.492188 129.921875 179.898438 128.890625 179.28125 C 127.859375 178.660156 126.84375 178.019531 125.84375 177.351562 C 124.84375 176.683594 123.859375 175.992188 122.894531 175.273438 C 121.929688 174.558594 120.980469 173.820312 120.050781 173.058594 C 119.121094 172.292969 118.210938 171.507812 117.320312 170.703125 C 116.429688 169.894531 115.558594 169.066406 114.710938 168.214844 C 113.859375 167.367188 113.03125 166.496094 112.222656 165.605469 C 111.417969 164.714844 110.632812 163.804688 109.867188 162.875 C 109.105469 161.945312 108.367188 160.996094 107.648438 160.03125 C 106.933594 159.066406 106.242188 158.082031 105.574219 157.085938 C 104.90625 156.085938 104.261719 155.070312 103.644531 154.039062 C 103.027344 153.007812 102.433594 151.960938 101.867188 150.902344 C 101.300781 149.839844 100.757812 148.765625 100.246094 147.679688 C 99.730469 146.59375 99.246094 145.496094 98.785156 144.382812 C 98.324219 143.273438 97.890625 142.152344 97.484375 141.019531 C 97.082031 139.886719 96.703125 138.746094 96.355469 137.597656 C 96.007812 136.445312 95.683594 135.289062 95.394531 134.121094 C 95.101562 132.957031 94.835938 131.78125 94.601562 130.605469 C 94.367188 129.425781 94.164062 128.242188 93.988281 127.050781 C 93.808594 125.863281 93.664062 124.667969 93.546875 123.472656 C 93.425781 122.277344 93.339844 121.078125 93.28125 119.878906 C 93.222656 118.675781 93.191406 117.476562 93.191406 116.273438 C 93.191406 115.070312 93.222656 113.867188 93.28125 112.667969 C 93.339844 111.46875 93.425781 110.269531 93.546875 109.074219 C 93.664062 107.875 93.808594 106.683594 93.988281 105.496094 C 94.164062 104.304688 94.367188 103.121094 94.601562 101.941406 C 94.835938 100.761719 95.101562 99.589844 95.394531 98.425781 C 95.683594 97.257812 96.007812 96.097656 96.355469 94.949219 C 96.703125 93.796875 97.082031 92.65625 97.484375 91.527344 C 97.890625 90.394531 98.324219 89.273438 98.785156 88.160156 C 99.246094 87.050781 99.730469 85.953125 100.246094 84.867188 C 100.757812 83.777344 101.300781 82.703125 101.867188 81.644531 C 102.433594 80.585938 103.027344 79.539062 103.644531 78.507812 C 104.261719 77.476562 104.90625 76.460938 105.574219 75.460938 C 106.242188 74.460938 106.933594 73.480469 107.648438 72.515625 C 108.367188 71.546875 109.105469 70.601562 109.867188 69.671875 C 110.632812 68.742188 111.417969 67.832031 112.222656 66.941406 C 113.03125 66.050781 113.859375 65.179688 114.710938 64.328125 C 115.558594 63.480469 116.429688 62.652344 117.320312 61.84375 C 118.210938 61.035156 119.121094 60.25 120.050781 59.488281 C 120.980469 58.726562 121.929688 57.988281 122.894531 57.269531 C 123.859375 56.554688 124.84375 55.863281 125.84375 55.195312 C 126.84375 54.527344 127.859375 53.882812 128.890625 53.265625 C 129.921875 52.648438 130.96875 52.054688 132.027344 51.488281 C 133.085938 50.921875 134.160156 50.382812 135.25 49.867188 C 136.335938 49.351562 137.433594 48.867188 138.546875 48.40625 C 139.65625 47.945312 140.777344 47.511719 141.910156 47.109375 C 143.042969 46.703125 144.183594 46.328125 145.332031 45.976562 C 146.484375 45.628906 147.640625 45.308594 148.808594 45.015625 C 149.976562 44.722656 151.148438 44.460938 152.328125 44.226562 C 153.507812 43.992188 154.691406 43.785156 155.878906 43.609375 C 157.070312 43.433594 158.261719 43.285156 159.460938 43.167969 C 160.65625 43.050781 161.855469 42.960938 163.054688 42.902344 C 164.257812 42.84375 165.457031 42.816406 166.660156 42.816406 C 167.863281 42.816406 169.0625 42.84375 170.265625 42.902344 C 171.464844 42.960938 172.664062 43.050781 173.863281 43.167969 C 175.058594 43.285156 176.25 43.433594 177.441406 43.609375 C 178.628906 43.785156 179.8125 43.992188 180.992188 44.226562 C 182.171875 44.460938 183.34375 44.722656 184.511719 45.015625 C 185.679688 45.308594 186.835938 45.628906 187.988281 45.976562 C 189.136719 46.328125 190.277344 46.703125 191.410156 47.109375 C 192.542969 47.511719 193.664062 47.945312 194.777344 48.40625 C 195.886719 48.867188 196.984375 49.351562 198.070312 49.867188 C 199.160156 50.382812 200.234375 50.921875 201.292969 51.488281 C 202.355469 52.054688 203.398438 52.648438 204.429688 53.265625 C 205.460938 53.882812 206.476562 54.527344 207.476562 55.195312 C 208.476562 55.863281 209.460938 56.554688 210.425781 57.269531 C 211.390625 57.988281 212.339844 58.726562 213.269531 59.488281 C 214.199219 60.25 215.109375 61.035156 216 61.84375 C 216.890625 62.652344 217.761719 63.480469 218.609375 64.328125 C 219.460938 65.179688 220.289062 66.050781 221.097656 66.941406 C 221.90625 67.832031 222.691406 68.742188 223.453125 69.671875 C 224.214844 70.601562 224.953125 71.546875 225.671875 72.515625 C 226.386719 73.480469 227.078125 74.460938 227.746094 75.460938 C 228.414062 76.460938 229.058594 77.476562 229.675781 78.507812 C 230.292969 79.539062 230.886719 80.585938 231.453125 81.644531 C 232.019531 82.703125 232.5625 83.777344 233.074219 84.867188 C 233.589844 85.953125 234.078125 87.050781 234.535156 88.160156 C 234.996094 89.273438 235.429688 90.394531 235.835938 91.527344 C 236.238281 92.65625 236.617188 93.796875 236.964844 94.949219 C 237.3125 96.097656 237.636719 97.257812 237.925781 98.425781 C 238.21875 99.589844 238.484375 100.761719 238.71875 101.941406 C 238.953125 103.121094 239.15625 104.304688 239.332031 105.496094 C 239.511719 106.683594 239.65625 107.875 239.773438 109.074219 C 239.894531 110.269531 239.980469 111.46875 240.039062 112.667969 C 240.097656 113.867188 240.128906 115.070312 240.128906 116.273438 Z M 240.128906 116.273438 "/><path style=" stroke:none;fill-rule:nonzero;fill:#2f2e41;fill-opacity:1;" d="M 191.992188 47.503906 C 191.992188 48.5 191.945312 49.492188 191.847656 50.480469 C 191.75 51.472656 191.601562 52.457031 191.410156 53.433594 C 191.214844 54.410156 190.972656 55.375 190.683594 56.328125 C 190.394531 57.277344 190.058594 58.214844 189.679688 59.136719 C 189.296875 60.054688 188.871094 60.953125 188.402344 61.832031 C 187.933594 62.710938 187.421875 63.5625 186.871094 64.390625 C 186.316406 65.21875 185.722656 66.015625 185.09375 66.785156 C 184.460938 67.554688 183.792969 68.292969 183.089844 68.996094 C 182.386719 69.699219 181.648438 70.367188 180.878906 71 C 180.109375 71.632812 179.308594 72.222656 178.480469 72.777344 C 177.65625 73.328125 176.800781 73.839844 175.921875 74.308594 C 175.046875 74.777344 174.144531 75.203125 173.226562 75.585938 C 172.308594 75.964844 171.371094 76.300781 170.417969 76.589844 C 169.464844 76.878906 168.5 77.121094 167.523438 77.316406 C 166.546875 77.507812 165.5625 77.65625 164.574219 77.753906 C 163.582031 77.851562 162.589844 77.898438 161.59375 77.898438 C 160.597656 77.898438 159.605469 77.851562 158.613281 77.753906 C 157.621094 77.65625 156.636719 77.507812 155.660156 77.316406 C 154.683594 77.121094 153.722656 76.878906 152.769531 76.589844 C 151.816406 76.300781 150.878906 75.964844 149.960938 75.585938 C 149.039062 75.203125 148.140625 74.777344 147.261719 74.308594 C 146.382812 73.839844 145.53125 73.328125 144.703125 72.777344 C 143.875 72.222656 143.078125 71.632812 142.308594 71 C 141.539062 70.367188 140.800781 69.699219 140.097656 68.996094 C 139.390625 68.292969 138.726562 67.554688 138.09375 66.785156 C 137.460938 66.015625 136.867188 65.21875 136.316406 64.390625 C 135.761719 63.5625 135.25 62.710938 134.78125 61.832031 C 134.3125 60.953125 133.886719 60.054688 133.507812 59.136719 C 133.125 58.214844 132.789062 57.277344 132.5 56.328125 C 132.210938 55.375 131.972656 54.410156 131.777344 53.433594 C 131.582031 52.457031 131.4375 51.472656 131.339844 50.480469 C 131.242188 49.492188 131.191406 48.5 131.191406 47.503906 C 131.191406 46.507812 131.242188 45.515625 131.339844 44.523438 C 131.4375 43.53125 131.582031 42.550781 131.777344 41.574219 C 131.972656 40.597656 132.210938 39.632812 132.5 38.679688 C 132.789062 37.726562 133.125 36.789062 133.507812 35.871094 C 133.886719 34.949219 134.3125 34.050781 134.78125 33.175781 C 135.25 32.296875 135.761719 31.445312 136.316406 30.617188 C 136.867188 29.789062 137.460938 28.988281 138.09375 28.21875 C 138.726562 27.449219 139.390625 26.714844 140.097656 26.007812 C 140.800781 25.304688 141.539062 24.636719 142.308594 24.007812 C 143.078125 23.375 143.875 22.78125 144.703125 22.230469 C 145.53125 21.675781 146.382812 21.164062 147.261719 20.695312 C 148.140625 20.226562 149.039062 19.800781 149.960938 19.421875 C 150.878906 19.039062 151.816406 18.703125 152.769531 18.414062 C 153.722656 18.125 154.683594 17.886719 155.660156 17.691406 C 156.636719 17.496094 157.621094 17.351562 158.613281 17.253906 C 159.605469 17.15625 160.597656 17.105469 161.59375 17.105469 C 162.589844 17.105469 163.582031 17.15625 164.574219 17.253906 C 165.5625 17.351562 166.546875 17.496094 167.523438 17.691406 C 168.5 17.886719 169.464844 18.125 170.417969 18.414062 C 171.371094 18.703125 172.308594 19.039062 173.226562 19.421875 C 174.144531 19.800781 175.046875 20.226562 175.921875 20.695312 C 176.800781 21.164062 177.65625 21.675781 178.480469 22.230469 C 179.308594 22.78125 180.109375 23.375 180.878906 24.007812 C 181.648438 24.636719 182.386719 25.304688 183.089844 26.007812 C 183.792969 26.714844 184.460938 27.449219 185.09375 28.21875 C 185.722656 28.988281 186.316406 29.789062 186.871094 30.617188 C 187.421875 31.445312 187.933594 32.296875 188.402344 33.175781 C 188.871094 34.050781 189.296875 34.949219 189.679688 35.871094 C 190.058594 36.789062 190.394531 37.726562 190.683594 38.679688 C 190.972656 39.632812 191.214844 40.597656 191.410156 41.574219 C 191.601562 42.550781 191.75 43.53125 191.847656 44.523438 C 191.945312 45.515625 191.992188 46.507812 191.992188 47.503906 Z M 191.992188 47.503906 "/><g clip-rule="nonzero" clip-path="url(#c3fdb45dd3)"><path style=" stroke:none;fill-rule:nonzero;fill:#2f2e41;fill-opacity:1;" d="M 174.894531 61.269531 C 175.945312 61.378906 177 61.433594 178.058594 61.433594 C 179.054688 61.433594 180.046875 61.386719 181.039062 61.289062 C 182.03125 61.191406 183.015625 61.046875 183.992188 60.851562 C 184.96875 60.65625 185.933594 60.414062 186.882812 60.125 C 187.835938 59.835938 188.773438 59.503906 189.695312 59.121094 C 190.613281 58.738281 191.511719 58.316406 192.390625 57.847656 C 193.269531 57.375 194.121094 56.867188 194.949219 56.3125 C 195.777344 55.757812 196.578125 55.167969 197.347656 54.535156 C 198.117188 53.902344 198.851562 53.234375 199.554688 52.53125 C 200.261719 51.828125 200.929688 51.089844 201.558594 50.320312 C 202.191406 49.550781 202.785156 48.753906 203.335938 47.925781 C 203.890625 47.097656 204.402344 46.246094 204.871094 45.367188 C 205.339844 44.488281 205.765625 43.589844 206.148438 42.671875 C 206.527344 41.75 206.863281 40.816406 207.152344 39.863281 C 207.441406 38.910156 207.683594 37.945312 207.875 36.96875 C 208.070312 35.992188 208.214844 35.007812 208.3125 34.019531 C 208.410156 33.027344 208.460938 32.035156 208.460938 31.039062 C 208.460938 30.042969 208.410156 29.050781 208.3125 28.058594 C 208.214844 27.066406 208.070312 26.085938 207.875 25.109375 C 207.683594 24.132812 207.441406 23.167969 207.152344 22.214844 C 206.863281 21.261719 206.527344 20.324219 206.148438 19.40625 C 205.765625 18.488281 205.339844 17.585938 204.871094 16.710938 C 204.402344 15.832031 203.890625 14.980469 203.335938 14.152344 C 202.785156 13.324219 202.191406 12.523438 201.558594 11.753906 C 200.929688 10.984375 200.261719 10.25 199.554688 9.542969 C 198.851562 8.839844 198.117188 8.171875 197.347656 7.542969 C 196.578125 6.910156 195.777344 6.316406 194.949219 5.765625 C 194.121094 5.210938 193.269531 4.699219 192.390625 4.230469 C 191.511719 3.761719 190.613281 3.335938 189.695312 2.957031 C 188.773438 2.574219 187.835938 2.238281 186.882812 1.949219 C 185.933594 1.660156 184.96875 1.421875 183.992188 1.226562 C 183.015625 1.03125 182.03125 0.886719 181.039062 0.789062 C 180.046875 0.691406 179.054688 0.640625 178.058594 0.640625 C 177 0.640625 175.945312 0.695312 174.894531 0.804688 C 175.816406 0.902344 176.734375 1.042969 177.648438 1.222656 C 178.558594 1.402344 179.460938 1.625 180.351562 1.890625 C 181.242188 2.152344 182.121094 2.457031 182.984375 2.800781 C 183.847656 3.144531 184.691406 3.527344 185.519531 3.949219 C 186.347656 4.371094 187.15625 4.832031 187.941406 5.328125 C 188.726562 5.820312 189.488281 6.351562 190.226562 6.917969 C 190.964844 7.484375 191.675781 8.082031 192.359375 8.710938 C 193.039062 9.34375 193.691406 10.003906 194.316406 10.695312 C 194.9375 11.386719 195.527344 12.101562 196.082031 12.847656 C 196.636719 13.589844 197.160156 14.359375 197.644531 15.152344 C 198.132812 15.945312 198.578125 16.757812 198.992188 17.589844 C 199.402344 18.425781 199.773438 19.273438 200.105469 20.140625 C 200.441406 21.011719 200.734375 21.890625 200.984375 22.785156 C 201.238281 23.679688 201.449219 24.582031 201.617188 25.496094 C 201.789062 26.410156 201.914062 27.332031 202 28.257812 C 202.085938 29.183594 202.128906 30.109375 202.128906 31.039062 C 202.128906 31.96875 202.085938 32.894531 202 33.820312 C 201.914062 34.746094 201.789062 35.664062 201.617188 36.578125 C 201.449219 37.492188 201.238281 38.398438 200.984375 39.292969 C 200.734375 40.1875 200.441406 41.066406 200.105469 41.933594 C 199.773438 42.800781 199.402344 43.652344 198.992188 44.484375 C 198.578125 45.320312 198.132812 46.132812 197.644531 46.925781 C 197.160156 47.714844 196.636719 48.484375 196.082031 49.230469 C 195.527344 49.972656 194.9375 50.691406 194.316406 51.382812 C 193.691406 52.074219 193.039062 52.734375 192.359375 53.363281 C 191.675781 53.996094 190.964844 54.59375 190.226562 55.160156 C 189.492188 55.722656 188.726562 56.253906 187.941406 56.75 C 187.15625 57.246094 186.347656 57.703125 185.519531 58.125 C 184.691406 58.546875 183.847656 58.929688 182.984375 59.273438 C 182.121094 59.621094 181.242188 59.921875 180.351562 60.1875 C 179.460938 60.449219 178.558594 60.671875 177.648438 60.855469 C 176.734375 61.035156 175.816406 61.171875 174.894531 61.269531 Z M 174.894531 61.269531 "/></g><path style=" stroke:none;fill-rule:nonzero;fill:#ffb9b9;fill-opacity:1;" d="M 219.007812 152.097656 C 219.007812 153.746094 218.925781 155.386719 218.761719 157.027344 C 218.601562 158.667969 218.359375 160.296875 218.039062 161.914062 C 217.71875 163.53125 217.316406 165.125 216.839844 166.703125 C 216.359375 168.28125 215.804688 169.828125 215.175781 171.351562 C 214.542969 172.875 213.839844 174.363281 213.0625 175.816406 C 212.285156 177.269531 211.441406 178.679688 210.523438 180.050781 C 209.609375 181.421875 208.628906 182.742188 207.582031 184.019531 C 206.535156 185.292969 205.429688 186.511719 204.265625 187.675781 C 203.101562 188.84375 201.878906 189.949219 200.605469 190.992188 C 199.332031 192.039062 198.011719 193.019531 196.640625 193.933594 C 195.269531 194.851562 193.855469 195.695312 192.402344 196.472656 C 190.949219 197.25 189.460938 197.953125 187.9375 198.585938 C 186.417969 199.214844 184.867188 199.769531 183.289062 200.246094 C 181.710938 200.726562 180.113281 201.125 178.5 201.449219 C 176.882812 201.769531 175.253906 202.011719 173.613281 202.171875 C 171.972656 202.332031 170.328125 202.414062 168.679688 202.414062 C 167.03125 202.414062 165.386719 202.332031 163.746094 202.171875 C 162.109375 202.011719 160.480469 201.769531 158.863281 201.449219 C 157.246094 201.125 155.648438 200.726562 154.070312 200.246094 C 152.496094 199.769531 150.945312 199.214844 149.421875 198.585938 C 147.898438 197.953125 146.410156 197.25 144.957031 196.472656 C 143.503906 195.695312 142.089844 194.851562 140.722656 193.933594 C 139.351562 193.019531 138.027344 192.039062 136.753906 190.992188 C 135.480469 189.949219 134.261719 188.84375 133.09375 187.675781 C 131.929688 186.511719 130.824219 185.292969 129.777344 184.019531 C 128.734375 182.742188 127.753906 181.421875 126.835938 180.050781 C 125.921875 178.679688 125.074219 177.269531 124.296875 175.816406 C 123.519531 174.363281 122.816406 172.875 122.1875 171.351562 C 121.554688 169.828125 121 168.28125 120.523438 166.703125 C 120.042969 165.125 119.644531 163.53125 119.320312 161.914062 C 119 160.296875 118.757812 158.667969 118.597656 157.027344 C 118.4375 155.386719 118.355469 153.746094 118.355469 152.097656 C 118.355469 150.449219 118.4375 148.804688 118.597656 147.164062 C 118.757812 145.523438 119 143.894531 119.320312 142.28125 C 119.644531 140.664062 120.042969 139.066406 120.523438 137.488281 C 121 135.914062 121.554688 134.363281 122.1875 132.839844 C 122.816406 131.316406 123.519531 129.828125 124.296875 128.375 C 125.074219 126.921875 125.921875 125.511719 126.835938 124.140625 C 127.753906 122.769531 128.734375 121.449219 129.777344 120.175781 C 130.824219 118.902344 131.929688 117.679688 133.09375 116.515625 C 134.261719 115.351562 135.480469 114.246094 136.753906 113.199219 C 138.027344 112.152344 139.351562 111.171875 140.722656 110.257812 C 142.089844 109.34375 143.503906 108.496094 144.957031 107.71875 C 146.410156 106.941406 147.898438 106.238281 149.421875 105.609375 C 150.945312 104.976562 152.496094 104.421875 154.070312 103.945312 C 155.648438 103.464844 157.246094 103.066406 158.863281 102.746094 C 160.480469 102.421875 162.109375 102.183594 163.746094 102.019531 C 165.386719 101.859375 167.03125 101.777344 168.679688 101.777344 C 170.328125 101.777344 171.972656 101.859375 173.613281 102.019531 C 175.253906 102.183594 176.882812 102.421875 178.5 102.746094 C 180.113281 103.066406 181.710938 103.464844 183.289062 103.945312 C 184.867188 104.421875 186.417969 104.976562 187.9375 105.609375 C 189.460938 106.238281 190.949219 106.941406 192.402344 107.71875 C 193.855469 108.496094 195.269531 109.34375 196.640625 110.257812 C 198.011719 111.171875 199.332031 112.152344 200.605469 113.199219 C 201.878906 114.246094 203.101562 115.351562 204.265625 116.515625 C 205.429688 117.679688 206.535156 118.902344 207.582031 120.175781 C 208.628906 121.449219 209.609375 122.769531 210.523438 124.140625 C 211.441406 125.511719 212.285156 126.921875 213.0625 128.375 C 213.839844 129.828125 214.542969 131.316406 215.175781 132.839844 C 215.804688 134.363281 216.359375 135.914062 216.839844 137.488281 C 217.316406 139.066406 217.71875 140.664062 218.039062 142.28125 C 218.359375 143.894531 218.601562 145.523438 218.761719 147.164062 C 218.925781 148.804688 219.007812 150.449219 219.007812 152.097656 Z M 219.007812 152.097656 "/><path style=" stroke:none;fill-rule:nonzero;fill:#e6e6e6;fill-opacity:1;" d="M 96.1875 229.371094 C 80.609375 232.964844 54.246094 271.304688 54.246094 271.304688 L 96.1875 313.238281 C 96.1875 313.238281 126.140625 425.855469 129.738281 430.648438 C 153.289062 462.042969 259.148438 392.308594 259.148438 392.308594 C 259.148438 392.308594 254.953125 358.164062 257.351562 341.390625 C 259.65625 325.257812 248.363281 292.871094 248.363281 292.871094 C 248.363281 292.871094 287.90625 276.097656 279.515625 259.324219 C 271.128906 242.550781 219.605469 204.210938 198.035156 217.390625 C 176.46875 230.570312 133.332031 217.390625 133.332031 217.390625 C 133.332031 217.390625 111.761719 225.777344 96.1875 229.371094 Z M 96.1875 229.371094 "/><path style=" stroke:none;fill-rule:nonzero;fill:#ffb9b9;fill-opacity:1;" d="M 402.335938 470.78125 C 402.335938 470.78125 470.636719 529.488281 487.410156 517.507812 C 504.1875 505.527344 422.707031 463.59375 422.707031 463.59375 Z M 402.335938 470.78125 "/><path style=" stroke:none;fill-rule:nonzero;fill:#ffb9b9;fill-opacity:1;" d="M 95.585938 450.414062 C 105.171875 461.199219 150.707031 433.644531 144.867188 421.40625 C 139.03125 409.167969 102.777344 433.644531 102.777344 433.644531 C 102.777344 433.644531 86 439.632812 95.585938 450.414062 Z M 95.585938 450.414062 "/><path style=" stroke:none;fill-rule:nonzero;fill:#e6e6e6;fill-opacity:1;" d="M 96.1875 288.078125 L 45.859375 381.527344 C 45.859375 381.527344 103.375 429.449219 110.566406 430.648438 C 117.753906 431.84375 96.1875 462.996094 96.1875 462.996094 C 96.1875 462.996094 31.480469 417.46875 6.320312 394.707031 C -18.84375 371.941406 54.246094 271.304688 54.246094 271.304688 L 75.816406 258.125 Z M 96.1875 288.078125 "/><path style=" stroke:none;fill-rule:nonzero;fill:#e6e6e6;fill-opacity:1;" d="M 242.371094 284.484375 L 301.085938 375.535156 C 301.085938 375.535156 390.953125 476.175781 402.9375 480.964844 C 414.917969 485.757812 429.296875 462.996094 429.296875 462.996094 L 321.457031 332.40625 L 280.714844 259.324219 L 265.136719 253.332031 Z M 242.371094 284.484375 "/><path style=" stroke:none;fill-rule:nonzero;fill:#2f2e41;fill-opacity:1;" d="M 217.328125 92.3125 C 217.328125 93.304688 217.246094 94.300781 217.085938 95.289062 C 216.921875 96.28125 216.679688 97.265625 216.355469 98.242188 C 216.03125 99.21875 215.628906 100.179688 215.148438 101.132812 C 214.664062 102.085938 214.105469 103.023438 213.472656 103.941406 C 212.835938 104.863281 212.128906 105.761719 211.347656 106.640625 C 210.5625 107.515625 209.710938 108.371094 208.789062 109.199219 C 207.867188 110.027344 206.878906 110.824219 205.828125 111.59375 C 204.773438 112.363281 203.660156 113.101562 202.488281 113.804688 C 201.316406 114.507812 200.085938 115.175781 198.804688 115.808594 C 197.519531 116.4375 196.191406 117.03125 194.808594 117.582031 C 193.429688 118.136719 192.007812 118.648438 190.546875 119.117188 C 189.082031 119.585938 187.582031 120.011719 186.050781 120.394531 C 184.515625 120.773438 182.957031 121.109375 181.367188 121.398438 C 179.78125 121.6875 178.171875 121.929688 176.546875 122.121094 C 174.917969 122.316406 173.277344 122.460938 171.625 122.558594 C 169.976562 122.65625 168.320312 122.707031 166.660156 122.707031 C 165 122.707031 163.34375 122.65625 161.695312 122.558594 C 160.042969 122.460938 158.402344 122.316406 156.773438 122.121094 C 155.148438 121.929688 153.539062 121.6875 151.953125 121.398438 C 150.363281 121.109375 148.804688 120.773438 147.269531 120.394531 C 145.738281 120.011719 144.238281 119.585938 142.773438 119.117188 C 141.3125 118.648438 139.890625 118.136719 138.511719 117.582031 C 137.128906 117.03125 135.800781 116.4375 134.515625 115.808594 C 133.234375 115.175781 132.003906 114.507812 130.832031 113.804688 C 129.660156 113.101562 128.546875 112.363281 127.492188 111.59375 C 126.441406 110.824219 125.453125 110.027344 124.53125 109.199219 C 123.609375 108.371094 122.757812 107.515625 121.972656 106.640625 C 121.191406 105.761719 120.484375 104.863281 119.847656 103.941406 C 119.214844 103.023438 118.65625 102.085938 118.171875 101.132812 C 117.691406 100.179688 117.289062 99.21875 116.964844 98.242188 C 116.640625 97.265625 116.398438 96.28125 116.234375 95.289062 C 116.074219 94.300781 115.992188 93.304688 115.992188 92.3125 C 115.992188 91.316406 116.074219 90.320312 116.234375 89.332031 C 116.398438 88.339844 116.640625 87.355469 116.964844 86.378906 C 117.289062 85.402344 117.691406 84.441406 118.171875 83.488281 C 118.65625 82.535156 119.214844 81.597656 119.847656 80.679688 C 120.484375 79.757812 121.191406 78.859375 121.972656 77.980469 C 122.757812 77.105469 123.609375 76.25 124.53125 75.421875 C 125.453125 74.59375 126.441406 73.796875 127.492188 73.027344 C 128.546875 72.257812 129.660156 71.519531 130.832031 70.816406 C 132.003906 70.113281 133.234375 69.445312 134.515625 68.8125 C 135.800781 68.183594 137.128906 67.589844 138.511719 67.039062 C 139.890625 66.484375 141.3125 65.972656 142.773438 65.503906 C 144.238281 65.035156 145.738281 64.609375 147.269531 64.226562 C 148.804688 63.847656 150.363281 63.511719 151.953125 63.222656 C 153.539062 62.933594 155.148438 62.691406 156.773438 62.5 C 158.402344 62.304688 160.042969 62.160156 161.695312 62.0625 C 163.34375 61.964844 165 61.914062 166.660156 61.914062 C 168.320312 61.914062 169.976562 61.964844 171.625 62.0625 C 173.277344 62.160156 174.917969 62.304688 176.546875 62.5 C 178.171875 62.691406 179.78125 62.933594 181.367188 63.222656 C 182.957031 63.511719 184.515625 63.847656 186.050781 64.226562 C 187.582031 64.609375 189.082031 65.035156 190.546875 65.503906 C 192.007812 65.972656 193.429688 66.484375 194.808594 67.039062 C 196.191406 67.589844 197.519531 68.183594 198.804688 68.8125 C 200.085938 69.445312 201.316406 70.113281 202.488281 70.816406 C 203.660156 71.519531 204.773438 72.257812 205.828125 73.027344 C 206.878906 73.796875 207.867188 74.59375 208.789062 75.421875 C 209.710938 76.25 210.5625 77.105469 211.347656 77.980469 C 212.128906 78.859375 212.835938 79.757812 213.472656 80.679688 C 214.105469 81.597656 214.664062 82.535156 215.148438 83.488281 C 215.628906 84.441406 216.03125 85.402344 216.355469 86.378906 C 216.679688 87.355469 216.921875 88.339844 217.085938 89.332031 C 217.246094 90.320312 217.328125 91.316406 217.328125 92.3125 Z M 217.328125 92.3125 "/><path style=" stroke:none;fill-rule:nonzero;fill:#e6e6e6;fill-opacity:1;" d="M 308.800781 748.148438 C 308.390625 748.148438 307.980469 748.191406 307.578125 748.269531 C 307.175781 748.351562 306.785156 748.472656 306.40625 748.628906 C 306.023438 748.785156 305.664062 748.980469 305.320312 749.207031 C 304.980469 749.4375 304.664062 749.695312 304.375 749.984375 C 304.082031 750.277344 303.824219 750.59375 303.59375 750.933594 C 303.367188 751.277344 303.171875 751.636719 303.015625 752.015625 C 302.859375 752.398438 302.738281 752.789062 302.660156 753.191406 C 302.578125 753.59375 302.539062 754 302.535156 754.414062 L 302.535156 968.015625 C 302.539062 968.425781 302.578125 968.832031 302.660156 969.234375 C 302.738281 969.636719 302.859375 970.03125 303.015625 970.410156 C 303.171875 970.789062 303.367188 971.148438 303.59375 971.492188 C 303.824219 971.832031 304.082031 972.148438 304.375 972.441406 C 304.664062 972.730469 304.980469 972.992188 305.320312 973.21875 C 305.664062 973.449219 306.023438 973.640625 306.40625 973.796875 C 306.785156 973.957031 307.175781 974.074219 307.578125 974.15625 C 307.980469 974.234375 308.390625 974.277344 308.800781 974.277344 L 1037.246094 974.277344 C 1037.660156 974.277344 1038.066406 974.234375 1038.46875 974.15625 C 1038.871094 974.074219 1039.265625 973.957031 1039.644531 973.796875 C 1040.023438 973.640625 1040.382812 973.449219 1040.726562 973.21875 C 1041.066406 972.992188 1041.382812 972.730469 1041.675781 972.441406 C 1041.964844 972.148438 1042.226562 971.832031 1042.453125 971.492188 C 1042.683594 971.148438 1042.875 970.789062 1043.03125 970.410156 C 1043.191406 970.03125 1043.308594 969.636719 1043.390625 969.234375 C 1043.46875 968.832031 1043.511719 968.425781 1043.511719 968.015625 L 1043.511719 754.414062 C 1043.511719 754 1043.46875 753.59375 1043.390625 753.191406 C 1043.308594 752.789062 1043.191406 752.398438 1043.03125 752.015625 C 1042.875 751.636719 1042.683594 751.277344 1042.453125 750.933594 C 1042.226562 750.59375 1041.964844 750.277344 1041.675781 749.984375 C 1041.382812 749.695312 1041.066406 749.4375 1040.726562 749.207031 C 1040.382812 748.980469 1040.023438 748.785156 1039.644531 748.628906 C 1039.265625 748.472656 1038.871094 748.351562 1038.46875 748.269531 C 1038.066406 748.191406 1037.660156 748.148438 1037.246094 748.148438 Z M 308.800781 748.148438 "/><path style=" stroke:none;fill-rule:nonzero;fill:#ffffff;fill-opacity:1;" d="M 318.234375 958.582031 L 1027.8125 958.582031 L 1027.8125 763.84375 L 318.234375 763.84375 Z M 318.234375 958.582031 "/><path style=" stroke:none;fill-rule:nonzero;fill:#2563eb;fill-opacity:1;" d="M 938.246094 918.183594 C 937.566406 918.179688 936.890625 918.246094 936.21875 918.378906 C 935.550781 918.507812 934.898438 918.703125 934.269531 918.964844 C 933.636719 919.226562 933.039062 919.542969 932.46875 919.921875 C 931.902344 920.300781 931.375 920.730469 930.894531 921.210938 C 930.410156 921.695312 929.976562 922.21875 929.597656 922.785156 C 929.21875 923.351562 928.898438 923.949219 928.636719 924.582031 C 928.375 925.210938 928.175781 925.859375 928.042969 926.53125 C 927.910156 927.199219 927.84375 927.875 927.84375 928.558594 C 927.84375 929.238281 927.910156 929.914062 928.042969 930.585938 C 928.175781 931.253906 928.375 931.902344 928.636719 932.535156 C 928.898438 933.164062 929.21875 933.761719 929.597656 934.328125 C 929.976562 934.898438 930.410156 935.421875 930.894531 935.902344 C 931.375 936.386719 931.902344 936.816406 932.46875 937.191406 C 933.039062 937.570312 933.636719 937.890625 934.269531 938.148438 C 934.898438 938.410156 935.550781 938.605469 936.21875 938.738281 C 936.890625 938.867188 937.566406 938.933594 938.246094 938.929688 L 979.75 938.929688 C 980.429688 938.929688 981.105469 938.863281 981.773438 938.730469 C 982.441406 938.597656 983.089844 938.402344 983.71875 938.140625 C 984.347656 937.878906 984.945312 937.5625 985.515625 937.183594 C 986.082031 936.804688 986.605469 936.375 987.085938 935.894531 C 987.566406 935.410156 987.996094 934.886719 988.375 934.320312 C 988.753906 933.753906 989.074219 933.15625 989.335938 932.527344 C 989.597656 931.898438 989.792969 931.25 989.925781 930.582031 C 990.058594 929.914062 990.125 929.238281 990.125 928.558594 C 990.125 927.875 990.058594 927.203125 989.925781 926.535156 C 989.792969 925.867188 989.597656 925.214844 989.335938 924.585938 C 989.074219 923.957031 988.753906 923.359375 988.375 922.792969 C 987.996094 922.226562 987.566406 921.703125 987.085938 921.222656 C 986.605469 920.738281 986.082031 920.308594 985.515625 919.929688 C 984.945312 919.554688 984.347656 919.234375 983.71875 918.972656 C 983.089844 918.710938 982.441406 918.515625 981.773438 918.382812 C 981.105469 918.25 980.429688 918.183594 979.75 918.183594 Z M 938.246094 918.183594 "/><path style=" stroke:none;fill-rule:nonzero;fill:#e6e6e6;fill-opacity:1;" d="M 511.039062 898.0625 L 990.125 898.0625 L 990.125 900.792969 L 511.039062 900.792969 Z M 511.039062 898.0625 "/><path style=" stroke:none;fill-rule:nonzero;fill:#2563eb;fill-opacity:1;" d="M 471.324219 861.214844 C 471.324219 863.191406 471.230469 865.167969 471.035156 867.136719 C 470.839844 869.105469 470.550781 871.0625 470.164062 873 C 469.777344 874.941406 469.296875 876.859375 468.722656 878.753906 C 468.148438 880.648438 467.484375 882.507812 466.726562 884.335938 C 465.96875 886.164062 465.125 887.953125 464.191406 889.695312 C 463.257812 891.441406 462.242188 893.136719 461.140625 894.78125 C 460.042969 896.429688 458.863281 898.015625 457.609375 899.546875 C 456.351562 901.074219 455.023438 902.539062 453.625 903.9375 C 452.226562 905.339844 450.761719 906.664062 449.230469 907.921875 C 447.703125 909.175781 446.113281 910.355469 444.46875 911.453125 C 442.824219 912.554688 441.128906 913.570312 439.382812 914.5 C 437.636719 915.433594 435.847656 916.28125 434.019531 917.035156 C 432.191406 917.792969 430.332031 918.460938 428.4375 919.035156 C 426.542969 919.609375 424.625 920.089844 422.683594 920.476562 C 420.742188 920.863281 418.789062 921.152344 416.816406 921.34375 C 414.847656 921.539062 412.875 921.636719 410.894531 921.636719 C 408.914062 921.636719 406.941406 921.539062 404.972656 921.34375 C 403 921.152344 401.046875 920.863281 399.105469 920.476562 C 397.164062 920.089844 395.246094 919.609375 393.351562 919.035156 C 391.457031 918.460938 389.597656 917.792969 387.769531 917.035156 C 385.941406 916.28125 384.152344 915.433594 382.40625 914.5 C 380.660156 913.570312 378.964844 912.554688 377.320312 911.453125 C 375.675781 910.355469 374.085938 909.175781 372.558594 907.921875 C 371.027344 906.664062 369.5625 905.339844 368.164062 903.9375 C 366.765625 902.539062 365.4375 901.074219 364.179688 899.546875 C 362.925781 898.015625 361.746094 896.429688 360.648438 894.78125 C 359.546875 893.136719 358.53125 891.441406 357.597656 889.695312 C 356.664062 887.953125 355.820312 886.164062 355.0625 884.335938 C 354.304688 882.507812 353.640625 880.648438 353.066406 878.753906 C 352.492188 876.859375 352.011719 874.941406 351.625 873 C 351.238281 871.0625 350.949219 869.105469 350.753906 867.136719 C 350.558594 865.167969 350.464844 863.191406 350.464844 861.214844 C 350.464844 859.234375 350.558594 857.261719 350.753906 855.292969 C 350.949219 853.320312 351.238281 851.367188 351.625 849.425781 C 352.011719 847.484375 352.492188 845.566406 353.066406 843.675781 C 353.640625 841.78125 354.304688 839.917969 355.0625 838.089844 C 355.820312 836.261719 356.664062 834.476562 357.597656 832.730469 C 358.53125 830.984375 359.546875 829.289062 360.648438 827.644531 C 361.746094 826 362.925781 824.410156 364.179688 822.882812 C 365.4375 821.351562 366.765625 819.886719 368.164062 818.488281 C 369.5625 817.089844 371.027344 815.761719 372.558594 814.507812 C 374.085938 813.25 375.675781 812.074219 377.320312 810.972656 C 378.964844 809.875 380.660156 808.859375 382.40625 807.925781 C 384.152344 806.992188 385.941406 806.148438 387.769531 805.390625 C 389.597656 804.632812 391.457031 803.96875 393.351562 803.394531 C 395.246094 802.820312 397.164062 802.339844 399.105469 801.953125 C 401.046875 801.566406 403 801.277344 404.972656 801.082031 C 406.941406 800.886719 408.914062 800.792969 410.894531 800.792969 C 412.875 800.792969 414.847656 800.886719 416.816406 801.082031 C 418.789062 801.277344 420.742188 801.566406 422.683594 801.953125 C 424.625 802.339844 426.542969 802.820312 428.4375 803.394531 C 430.332031 803.96875 432.191406 804.632812 434.019531 805.390625 C 435.847656 806.148438 437.636719 806.992188 439.382812 807.925781 C 441.128906 808.859375 442.824219 809.875 444.46875 810.972656 C 446.113281 812.074219 447.703125 813.25 449.230469 814.507812 C 450.761719 815.761719 452.226562 817.089844 453.625 818.488281 C 455.023438 819.886719 456.351562 821.351562 457.609375 822.882812 C 458.863281 824.410156 460.042969 826 461.140625 827.644531 C 462.242188 829.289062 463.257812 830.984375 464.191406 832.730469 C 465.125 834.476562 465.96875 836.261719 466.726562 838.089844 C 467.484375 839.917969 468.148438 841.78125 468.722656 843.675781 C 469.296875 845.566406 469.777344 847.484375 470.164062 849.425781 C 470.550781 851.367188 470.839844 853.320312 471.035156 855.292969 C 471.230469 857.261719 471.324219 859.234375 471.324219 861.214844 Z M 471.324219 861.214844 "/><path style=" stroke:none;fill-rule:nonzero;fill:#3f3d56;fill-opacity:1;" d="M 511.796875 882.820312 L 510.28125 880.550781 L 560.066406 847.363281 L 594.203125 863.75 L 643.308594 832.378906 L 740.988281 874.042969 L 818.773438 835.835938 L 894.308594 866.453125 L 989.21875 782.402344 L 991.03125 784.445312 L 894.851562 869.621094 L 818.882812 838.824219 L 741.066406 877.042969 L 643.5625 835.457031 L 594.394531 866.867188 L 560.285156 850.5 Z M 511.796875 882.820312 "/><path style=" stroke:none;fill-rule:nonzero;fill:#e6e6e6;fill-opacity:1;" d="M 519.910156 919.609375 C 519.328125 919.609375 518.75 919.667969 518.179688 919.78125 C 517.609375 919.894531 517.054688 920.0625 516.515625 920.285156 C 515.976562 920.507812 515.464844 920.78125 514.980469 921.105469 C 514.496094 921.429688 514.046875 921.796875 513.636719 922.207031 C 513.226562 922.621094 512.855469 923.070312 512.535156 923.554688 C 512.210938 924.035156 511.9375 924.546875 511.714844 925.085938 C 511.492188 925.625 511.324219 926.179688 511.207031 926.75 C 511.09375 927.320312 511.039062 927.898438 511.039062 928.480469 C 511.039062 929.0625 511.09375 929.640625 511.207031 930.210938 C 511.324219 930.78125 511.492188 931.335938 511.714844 931.875 C 511.9375 932.414062 512.210938 932.925781 512.535156 933.410156 C 512.855469 933.894531 513.226562 934.339844 513.636719 934.753906 C 514.046875 935.164062 514.496094 935.53125 514.980469 935.855469 C 515.464844 936.179688 515.976562 936.453125 516.515625 936.675781 C 517.054688 936.898438 517.609375 937.066406 518.179688 937.179688 C 518.75 937.292969 519.328125 937.351562 519.910156 937.351562 L 612.726562 937.351562 C 613.308594 937.351562 613.882812 937.292969 614.457031 937.179688 C 615.027344 937.066406 615.582031 936.898438 616.121094 936.675781 C 616.65625 936.453125 617.167969 936.179688 617.652344 935.855469 C 618.136719 935.53125 618.585938 935.164062 619 934.753906 C 619.410156 934.339844 619.777344 933.894531 620.101562 933.410156 C 620.425781 932.925781 620.699219 932.414062 620.921875 931.875 C 621.144531 931.335938 621.3125 930.78125 621.425781 930.210938 C 621.539062 929.640625 621.597656 929.0625 621.597656 928.480469 C 621.597656 927.898438 621.539062 927.320312 621.425781 926.75 C 621.3125 926.179688 621.144531 925.625 620.921875 925.085938 C 620.699219 924.546875 620.425781 924.035156 620.101562 923.550781 C 619.777344 923.070312 619.410156 922.621094 619 922.207031 C 618.585938 921.796875 618.136719 921.429688 617.652344 921.105469 C 617.167969 920.78125 616.65625 920.507812 616.121094 920.285156 C 615.582031 920.0625 615.027344 919.894531 614.457031 919.78125 C 613.882812 919.667969 613.308594 919.609375 612.726562 919.609375 Z M 519.910156 919.609375 "/><path style=" stroke:none;fill-rule:nonzero;fill:#ffffff;fill-opacity:1;" d="M 433.976562 834.183594 L 443.417969 834.183594 L 423.769531 853.625 C 423.34375 854.042969 422.902344 854.4375 422.441406 854.8125 C 421.976562 855.1875 421.496094 855.539062 421 855.867188 C 420.503906 856.195312 419.992188 856.496094 419.464844 856.777344 C 418.941406 857.054688 418.402344 857.304688 417.851562 857.53125 C 417.300781 857.757812 416.738281 857.957031 416.167969 858.128906 C 415.597656 858.296875 415.023438 858.441406 414.4375 858.554688 C 413.855469 858.671875 413.265625 858.757812 412.671875 858.816406 C 412.082031 858.875 411.488281 858.902344 410.890625 858.902344 C 410.296875 858.902344 409.703125 858.875 409.109375 858.816406 C 408.515625 858.757812 407.929688 858.671875 407.34375 858.554688 C 406.761719 858.441406 406.183594 858.296875 405.613281 858.128906 C 405.042969 857.957031 404.484375 857.757812 403.933594 857.53125 C 403.382812 857.304688 402.84375 857.054688 402.316406 856.777344 C 401.789062 856.496094 401.277344 856.195312 400.78125 855.867188 C 400.285156 855.539062 399.804688 855.1875 399.34375 854.8125 C 398.882812 854.4375 398.4375 854.042969 398.015625 853.625 L 378.367188 834.183594 L 387.8125 834.183594 L 402.738281 848.953125 C 403.273438 849.480469 403.859375 849.957031 404.488281 850.371094 C 405.121094 850.789062 405.785156 851.140625 406.484375 851.425781 C 407.183594 851.714844 407.90625 851.929688 408.648438 852.074219 C 409.386719 852.222656 410.136719 852.296875 410.894531 852.296875 C 411.648438 852.296875 412.398438 852.222656 413.140625 852.074219 C 413.878906 851.929688 414.601562 851.714844 415.300781 851.425781 C 416 851.140625 416.664062 850.789062 417.296875 850.371094 C 417.925781 849.957031 418.511719 849.480469 419.050781 848.953125 Z M 387.691406 888.246094 L 378.25 888.246094 L 398.015625 868.683594 C 398.441406 868.265625 398.882812 867.867188 399.347656 867.492188 C 399.808594 867.121094 400.289062 866.769531 400.785156 866.441406 C 401.28125 866.113281 401.792969 865.808594 402.320312 865.53125 C 402.847656 865.253906 403.382812 865 403.933594 864.773438 C 404.484375 864.550781 405.046875 864.351562 405.617188 864.179688 C 406.1875 864.007812 406.765625 863.863281 407.347656 863.75 C 407.933594 863.632812 408.519531 863.546875 409.113281 863.492188 C 409.707031 863.433594 410.300781 863.402344 410.894531 863.402344 C 411.488281 863.402344 412.082031 863.433594 412.675781 863.492188 C 413.269531 863.546875 413.855469 863.632812 414.441406 863.75 C 415.023438 863.863281 415.601562 864.007812 416.171875 864.179688 C 416.742188 864.351562 417.300781 864.550781 417.851562 864.773438 C 418.402344 865 418.941406 865.253906 419.46875 865.53125 C 419.996094 865.808594 420.507812 866.113281 421.003906 866.441406 C 421.5 866.769531 421.980469 867.121094 422.441406 867.496094 C 422.90625 867.867188 423.347656 868.265625 423.773438 868.683594 L 443.539062 888.246094 L 434.097656 888.246094 L 419.050781 873.355469 C 418.511719 872.824219 417.925781 872.351562 417.296875 871.933594 C 416.664062 871.519531 416 871.167969 415.300781 870.878906 C 414.601562 870.59375 413.878906 870.378906 413.140625 870.230469 C 412.398438 870.085938 411.648438 870.011719 410.894531 870.011719 C 410.136719 870.011719 409.386719 870.085938 408.648438 870.230469 C 407.90625 870.378906 407.183594 870.59375 406.484375 870.878906 C 405.785156 871.167969 405.121094 871.519531 404.488281 871.933594 C 403.859375 872.351562 403.273438 872.824219 402.738281 873.355469 Z M 387.691406 888.246094 "/><path style=" stroke:none;fill-rule:nonzero;fill:#e6e6e6;fill-opacity:1;" d="M 403.65625 63.964844 C 403.246094 63.964844 402.839844 64.003906 402.433594 64.085938 C 402.03125 64.167969 401.640625 64.285156 401.261719 64.441406 C 400.882812 64.601562 400.519531 64.792969 400.179688 65.023438 C 399.835938 65.25 399.519531 65.511719 399.230469 65.800781 C 398.9375 66.089844 398.679688 66.40625 398.449219 66.75 C 398.222656 67.089844 398.027344 67.453125 397.871094 67.832031 C 397.714844 68.210938 397.59375 68.601562 397.515625 69.003906 C 397.433594 69.410156 397.394531 69.816406 397.394531 70.226562 L 397.394531 283.828125 C 397.394531 284.238281 397.433594 284.648438 397.515625 285.050781 C 397.59375 285.453125 397.714844 285.84375 397.871094 286.222656 C 398.027344 286.605469 398.222656 286.964844 398.449219 287.304688 C 398.679688 287.648438 398.9375 287.964844 399.230469 288.253906 C 399.519531 288.546875 399.835938 288.804688 400.179688 289.035156 C 400.519531 289.261719 400.882812 289.453125 401.261719 289.613281 C 401.640625 289.769531 402.03125 289.890625 402.433594 289.96875 C 402.839844 290.050781 403.246094 290.089844 403.65625 290.089844 L 1132.105469 290.089844 C 1132.515625 290.089844 1132.921875 290.050781 1133.324219 289.96875 C 1133.726562 289.890625 1134.121094 289.769531 1134.5 289.613281 C 1134.878906 289.453125 1135.242188 289.261719 1135.582031 289.035156 C 1135.921875 288.804688 1136.238281 288.546875 1136.53125 288.253906 C 1136.820312 287.964844 1137.082031 287.648438 1137.308594 287.304688 C 1137.539062 286.964844 1137.730469 286.605469 1137.886719 286.222656 C 1138.046875 285.84375 1138.164062 285.453125 1138.246094 285.050781 C 1138.328125 284.648438 1138.367188 284.238281 1138.367188 283.828125 L 1138.367188 70.226562 C 1138.367188 69.816406 1138.328125 69.410156 1138.246094 69.003906 C 1138.164062 68.601562 1138.046875 68.210938 1137.886719 67.832031 C 1137.730469 67.453125 1137.539062 67.089844 1137.308594 66.75 C 1137.082031 66.40625 1136.820312 66.089844 1136.53125 65.800781 C 1136.238281 65.511719 1135.921875 65.25 1135.582031 65.023438 C 1135.238281 64.792969 1134.878906 64.601562 1134.5 64.441406 C 1134.121094 64.285156 1133.726562 64.167969 1133.324219 64.085938 C 1132.921875 64.003906 1132.515625 63.964844 1132.105469 63.964844 Z M 403.65625 63.964844 "/><path style=" stroke:none;fill-rule:nonzero;fill:#ffffff;fill-opacity:1;" d="M 413.089844 274.398438 L 1122.671875 274.398438 L 1122.671875 79.660156 L 413.089844 79.660156 Z M 413.089844 274.398438 "/><path style=" stroke:none;fill-rule:nonzero;fill:#2563eb;fill-opacity:1;" d="M 1033.105469 233.996094 C 1032.421875 233.996094 1031.75 234.0625 1031.078125 234.195312 C 1030.410156 234.328125 1029.761719 234.527344 1029.132812 234.789062 C 1028.503906 235.046875 1027.90625 235.367188 1027.339844 235.746094 C 1026.773438 236.125 1026.25 236.554688 1025.769531 237.035156 C 1025.285156 237.519531 1024.855469 238.042969 1024.476562 238.609375 C 1024.097656 239.175781 1023.777344 239.773438 1023.519531 240.402344 C 1023.257812 241.03125 1023.0625 241.679688 1022.929688 242.347656 C 1022.796875 243.015625 1022.730469 243.691406 1022.730469 244.371094 C 1022.730469 245.054688 1022.796875 245.726562 1022.929688 246.394531 C 1023.0625 247.0625 1023.257812 247.710938 1023.519531 248.339844 C 1023.777344 248.972656 1024.097656 249.570312 1024.476562 250.136719 C 1024.855469 250.703125 1025.285156 251.226562 1025.765625 251.707031 C 1026.25 252.1875 1026.773438 252.617188 1027.339844 252.996094 C 1027.90625 253.375 1028.503906 253.695312 1029.132812 253.957031 C 1029.761719 254.214844 1030.410156 254.414062 1031.078125 254.546875 C 1031.75 254.679688 1032.421875 254.746094 1033.105469 254.746094 L 1074.605469 254.746094 C 1075.285156 254.746094 1075.960938 254.679688 1076.628906 254.546875 C 1077.296875 254.414062 1077.945312 254.214844 1078.574219 253.957031 C 1079.207031 253.695312 1079.804688 253.375 1080.371094 252.996094 C 1080.9375 252.617188 1081.460938 252.1875 1081.941406 251.707031 C 1082.425781 251.226562 1082.855469 250.703125 1083.234375 250.136719 C 1083.609375 249.570312 1083.929688 248.972656 1084.191406 248.339844 C 1084.453125 247.710938 1084.648438 247.0625 1084.78125 246.394531 C 1084.914062 245.726562 1084.980469 245.054688 1084.980469 244.371094 C 1084.980469 243.691406 1084.914062 243.015625 1084.78125 242.347656 C 1084.648438 241.679688 1084.453125 241.03125 1084.191406 240.402344 C 1083.929688 239.773438 1083.609375 239.175781 1083.234375 238.609375 C 1082.855469 238.042969 1082.425781 237.519531 1081.941406 237.035156 C 1081.460938 236.554688 1080.9375 236.125 1080.371094 235.746094 C 1079.804688 235.367188 1079.207031 235.046875 1078.578125 234.789062 C 1077.945312 234.527344 1077.296875 234.328125 1076.628906 234.195312 C 1075.960938 234.0625 1075.285156 233.996094 1074.605469 233.996094 Z M 1033.105469 233.996094 "/><path style=" stroke:none;fill-rule:nonzero;fill:#e6e6e6;fill-opacity:1;" d="M 605.894531 213.875 L 1084.980469 213.875 L 1084.980469 216.605469 L 605.894531 216.605469 Z M 605.894531 213.875 "/><path style=" stroke:none;fill-rule:nonzero;fill:#2563eb;fill-opacity:1;" d="M 566.183594 177.027344 C 566.183594 179.007812 566.085938 180.980469 565.890625 182.949219 C 565.695312 184.917969 565.40625 186.875 565.019531 188.816406 C 564.632812 190.753906 564.152344 192.671875 563.578125 194.566406 C 563.003906 196.460938 562.339844 198.320312 561.582031 200.148438 C 560.824219 201.976562 559.980469 203.765625 559.046875 205.511719 C 558.113281 207.253906 557.097656 208.949219 555.996094 210.597656 C 554.898438 212.242188 553.71875 213.828125 552.464844 215.359375 C 551.207031 216.886719 549.882812 218.351562 548.480469 219.753906 C 547.082031 221.152344 545.617188 222.480469 544.085938 223.734375 C 542.558594 224.988281 540.96875 226.167969 539.324219 227.265625 C 537.679688 228.367188 535.984375 229.382812 534.238281 230.316406 C 532.492188 231.246094 530.707031 232.09375 528.875 232.851562 C 527.046875 233.609375 525.1875 234.273438 523.292969 234.847656 C 521.398438 235.421875 519.480469 235.902344 517.539062 236.289062 C 515.597656 236.675781 513.644531 236.964844 511.675781 237.160156 C 509.703125 237.351562 507.730469 237.449219 505.75 237.449219 C 503.769531 237.449219 501.796875 237.351562 499.828125 237.160156 C 497.859375 236.964844 495.902344 236.675781 493.960938 236.289062 C 492.019531 235.902344 490.101562 235.421875 488.207031 234.847656 C 486.3125 234.273438 484.453125 233.609375 482.625 232.851562 C 480.796875 232.09375 479.007812 231.246094 477.261719 230.316406 C 475.519531 229.382812 473.824219 228.367188 472.175781 227.265625 C 470.53125 226.167969 468.945312 224.988281 467.414062 223.734375 C 465.882812 222.480469 464.417969 221.152344 463.019531 219.753906 C 461.621094 218.351562 460.292969 216.886719 459.035156 215.359375 C 457.78125 213.828125 456.601562 212.242188 455.503906 210.597656 C 454.40625 208.949219 453.386719 207.253906 452.453125 205.511719 C 451.523438 203.765625 450.675781 201.976562 449.917969 200.148438 C 449.160156 198.320312 448.496094 196.460938 447.921875 194.566406 C 447.347656 192.671875 446.867188 190.753906 446.480469 188.816406 C 446.09375 186.875 445.804688 184.917969 445.609375 182.949219 C 445.417969 180.980469 445.320312 179.007812 445.320312 177.027344 C 445.320312 175.046875 445.417969 173.074219 445.609375 171.105469 C 445.804688 169.136719 446.09375 167.179688 446.480469 165.238281 C 446.867188 163.296875 447.347656 161.382812 447.921875 159.488281 C 448.496094 157.59375 449.160156 155.734375 449.917969 153.902344 C 450.675781 152.074219 451.523438 150.289062 452.453125 148.542969 C 453.386719 146.796875 454.40625 145.101562 455.503906 143.457031 C 456.601562 141.8125 457.78125 140.226562 459.035156 138.695312 C 460.292969 137.164062 461.621094 135.699219 463.019531 134.300781 C 464.417969 132.902344 465.882812 131.574219 467.414062 130.320312 C 468.945312 129.0625 470.53125 127.886719 472.175781 126.789062 C 473.824219 125.6875 475.519531 124.671875 477.261719 123.738281 C 479.007812 122.804688 480.796875 121.960938 482.625 121.203125 C 484.453125 120.445312 486.3125 119.78125 488.207031 119.207031 C 490.101562 118.632812 492.019531 118.152344 493.960938 117.765625 C 495.902344 117.378906 497.859375 117.089844 499.828125 116.894531 C 501.796875 116.703125 503.769531 116.605469 505.75 116.605469 C 507.730469 116.605469 509.703125 116.703125 511.675781 116.894531 C 513.644531 117.089844 515.597656 117.378906 517.539062 117.765625 C 519.480469 118.152344 521.398438 118.632812 523.292969 119.207031 C 525.1875 119.78125 527.046875 120.445312 528.875 121.203125 C 530.707031 121.960938 532.492188 122.804688 534.238281 123.738281 C 535.984375 124.671875 537.679688 125.6875 539.324219 126.789062 C 540.96875 127.886719 542.558594 129.0625 544.085938 130.320312 C 545.617188 131.574219 547.082031 132.902344 548.480469 134.300781 C 549.882812 135.699219 551.207031 137.164062 552.464844 138.695312 C 553.71875 140.226562 554.898438 141.8125 555.996094 143.457031 C 557.097656 145.101562 558.113281 146.796875 559.046875 148.542969 C 559.980469 150.289062 560.824219 152.074219 561.582031 153.902344 C 562.339844 155.734375 563.003906 157.59375 563.578125 159.488281 C 564.152344 161.382812 564.632812 163.296875 565.019531 165.238281 C 565.40625 167.179688 565.695312 169.136719 565.890625 171.105469 C 566.085938 173.074219 566.183594 175.046875 566.183594 177.027344 Z M 566.183594 177.027344 "/><path style=" stroke:none;fill-rule:nonzero;fill:#3f3d56;fill-opacity:1;" d="M 606.652344 198.632812 L 605.136719 196.363281 L 654.921875 163.179688 L 689.058594 179.5625 L 738.164062 148.195312 L 738.828125 148.476562 L 835.84375 189.855469 L 913.628906 151.652344 L 989.164062 182.269531 L 1084.078125 98.214844 L 1085.886719 100.257812 L 989.707031 185.433594 L 913.738281 154.640625 L 835.925781 192.859375 L 738.417969 151.269531 L 689.25 182.679688 L 655.140625 166.3125 Z M 606.652344 198.632812 "/><path style=" stroke:none;fill-rule:nonzero;fill:#e6e6e6;fill-opacity:1;" d="M 614.765625 235.425781 C 614.183594 235.425781 613.605469 235.480469 613.035156 235.59375 C 612.464844 235.707031 611.910156 235.878906 611.371094 236.101562 C 610.832031 236.324219 610.320312 236.597656 609.835938 236.917969 C 609.351562 237.242188 608.90625 237.609375 608.492188 238.023438 C 608.082031 238.433594 607.714844 238.882812 607.390625 239.367188 C 607.066406 239.851562 606.792969 240.363281 606.570312 240.902344 C 606.347656 241.4375 606.179688 241.992188 606.066406 242.566406 C 605.953125 243.136719 605.894531 243.710938 605.894531 244.296875 C 605.894531 244.878906 605.953125 245.453125 606.066406 246.027344 C 606.179688 246.597656 606.347656 247.152344 606.570312 247.691406 C 606.792969 248.226562 607.066406 248.738281 607.390625 249.222656 C 607.714844 249.707031 608.082031 250.15625 608.492188 250.566406 C 608.90625 250.980469 609.351562 251.347656 609.835938 251.671875 C 610.320312 251.996094 610.832031 252.269531 611.371094 252.492188 C 611.910156 252.714844 612.464844 252.882812 613.035156 252.996094 C 613.605469 253.109375 614.183594 253.167969 614.765625 253.167969 L 707.582031 253.167969 C 708.164062 253.167969 708.742188 253.109375 709.3125 252.996094 C 709.882812 252.882812 710.4375 252.714844 710.976562 252.492188 C 711.515625 252.269531 712.027344 251.996094 712.511719 251.671875 C 712.996094 251.347656 713.441406 250.980469 713.855469 250.566406 C 714.265625 250.15625 714.632812 249.707031 714.957031 249.222656 C 715.28125 248.738281 715.554688 248.226562 715.777344 247.691406 C 716 247.152344 716.167969 246.597656 716.28125 246.027344 C 716.394531 245.453125 716.453125 244.878906 716.453125 244.296875 C 716.453125 243.710938 716.394531 243.136719 716.28125 242.566406 C 716.167969 241.992188 716 241.4375 715.777344 240.902344 C 715.554688 240.363281 715.28125 239.851562 714.957031 239.367188 C 714.632812 238.882812 714.265625 238.433594 713.855469 238.023438 C 713.441406 237.609375 712.996094 237.242188 712.511719 236.917969 C 712.027344 236.597656 711.515625 236.324219 710.976562 236.101562 C 710.4375 235.878906 709.882812 235.707031 709.3125 235.59375 C 708.742188 235.480469 708.164062 235.425781 707.582031 235.425781 Z M 614.765625 235.425781 "/><path style=" stroke:none;fill-rule:nonzero;fill:#ffffff;fill-opacity:1;" d="M 530.066406 169.976562 C 531.195312 162.414062 525.4375 158.347656 517.5625 155.636719 L 520.117188 145.394531 L 513.878906 143.839844 L 511.394531 153.8125 C 509.757812 153.40625 508.074219 153.019531 506.398438 152.636719 L 508.902344 142.601562 L 502.671875 141.046875 L 500.117188 151.285156 C 498.757812 150.976562 497.425781 150.671875 496.132812 150.347656 L 496.140625 150.316406 L 487.542969 148.171875 L 485.882812 154.828125 C 485.882812 154.828125 490.507812 155.890625 490.410156 155.957031 C 490.84375 156.007812 491.25 156.136719 491.628906 156.347656 C 492.007812 156.558594 492.335938 156.835938 492.605469 157.175781 C 492.878906 157.515625 493.074219 157.890625 493.199219 158.308594 C 493.320312 158.726562 493.359375 159.148438 493.316406 159.582031 L 490.410156 171.25 C 490.628906 171.304688 490.84375 171.375 491.054688 171.457031 L 490.398438 171.292969 L 486.320312 187.640625 C 486.230469 187.929688 486.085938 188.1875 485.894531 188.417969 C 485.699219 188.652344 485.46875 188.835938 485.199219 188.976562 C 484.929688 189.113281 484.644531 189.195312 484.34375 189.222656 C 484.042969 189.246094 483.75 189.214844 483.460938 189.121094 C 483.523438 189.210938 478.929688 187.992188 478.929688 187.992188 L 475.835938 195.128906 L 483.949219 197.152344 C 485.460938 197.53125 486.941406 197.925781 488.394531 198.296875 L 485.8125 208.660156 L 492.042969 210.214844 L 494.601562 199.964844 C 496.300781 200.425781 497.949219 200.851562 499.566406 201.253906 L 497.019531 211.457031 L 503.257812 213.007812 L 505.835938 202.667969 C 516.46875 204.679688 524.46875 203.871094 527.828125 194.253906 C 530.542969 186.511719 527.695312 182.046875 522.101562 179.132812 C 526.175781 178.191406 529.246094 175.511719 530.0625 169.976562 Z M 515.816406 189.949219 C 513.886719 197.691406 500.851562 193.507812 496.621094 192.457031 L 500.046875 178.734375 C 504.273438 179.789062 517.828125 181.875 515.816406 189.949219 Z M 517.742188 169.863281 C 515.984375 176.90625 505.132812 173.328125 501.613281 172.449219 L 504.714844 160.003906 C 508.238281 160.878906 519.574219 162.515625 517.742188 169.863281 Z M 517.742188 169.863281 "/><path style=" stroke:none;fill-rule:nonzero;fill:#e6e6e6;fill-opacity:1;" d="M 690.242188 406.058594 C 689.832031 406.058594 689.425781 406.097656 689.019531 406.179688 C 688.617188 406.257812 688.226562 406.378906 687.847656 406.535156 C 687.46875 406.691406 687.105469 406.886719 686.765625 407.113281 C 686.421875 407.34375 686.105469 407.601562 685.816406 407.894531 C 685.523438 408.183594 685.265625 408.5 685.035156 408.84375 C 684.808594 409.183594 684.617188 409.542969 684.457031 409.925781 C 684.300781 410.304688 684.179688 410.695312 684.101562 411.097656 C 684.019531 411.5 683.980469 411.910156 683.980469 412.320312 L 683.980469 625.921875 C 683.980469 626.332031 684.019531 626.738281 684.101562 627.140625 C 684.179688 627.546875 684.300781 627.9375 684.457031 628.316406 C 684.617188 628.695312 684.808594 629.058594 685.035156 629.398438 C 685.265625 629.742188 685.523438 630.058594 685.816406 630.347656 C 686.105469 630.636719 686.421875 630.898438 686.765625 631.125 C 687.105469 631.355469 687.46875 631.546875 687.847656 631.707031 C 688.226562 631.863281 688.617188 631.980469 689.019531 632.0625 C 689.425781 632.144531 689.832031 632.183594 690.242188 632.183594 L 1418.691406 632.183594 C 1419.101562 632.183594 1419.507812 632.144531 1419.910156 632.0625 C 1420.316406 631.980469 1420.707031 631.863281 1421.085938 631.707031 C 1421.464844 631.546875 1421.828125 631.355469 1422.167969 631.125 C 1422.511719 630.898438 1422.828125 630.636719 1423.117188 630.347656 C 1423.40625 630.058594 1423.667969 629.742188 1423.894531 629.398438 C 1424.125 629.058594 1424.316406 628.695312 1424.476562 628.316406 C 1424.632812 627.9375 1424.75 627.546875 1424.832031 627.144531 C 1424.914062 626.738281 1424.953125 626.332031 1424.953125 625.921875 L 1424.953125 412.320312 C 1424.953125 411.910156 1424.914062 411.5 1424.832031 411.097656 C 1424.75 410.695312 1424.632812 410.304688 1424.476562 409.925781 C 1424.316406 409.542969 1424.125 409.183594 1423.894531 408.84375 C 1423.667969 408.5 1423.40625 408.183594 1423.117188 407.894531 C 1422.824219 407.601562 1422.511719 407.34375 1422.167969 407.113281 C 1421.828125 406.886719 1421.464844 406.691406 1421.085938 406.535156 C 1420.707031 406.378906 1420.316406 406.257812 1419.910156 406.179688 C 1419.507812 406.097656 1419.101562 406.058594 1418.691406 406.058594 Z M 690.242188 406.058594 "/><path style=" stroke:none;fill-rule:nonzero;fill:#ffffff;fill-opacity:1;" d="M 699.675781 616.488281 L 1409.257812 616.488281 L 1409.257812 421.75 L 699.675781 421.75 Z M 699.675781 616.488281 "/><path style=" stroke:none;fill-rule:nonzero;fill:#2563eb;fill-opacity:1;" d="M 1319.691406 576.089844 C 1319.007812 576.089844 1318.335938 576.15625 1317.667969 576.289062 C 1316.996094 576.421875 1316.347656 576.621094 1315.71875 576.878906 C 1315.089844 577.140625 1314.492188 577.460938 1313.925781 577.839844 C 1313.359375 578.21875 1312.835938 578.648438 1312.355469 579.128906 C 1311.871094 579.609375 1311.441406 580.132812 1311.0625 580.699219 C 1310.683594 581.265625 1310.367188 581.863281 1310.105469 582.496094 C 1309.84375 583.125 1309.648438 583.773438 1309.515625 584.441406 C 1309.382812 585.109375 1309.316406 585.785156 1309.316406 586.464844 C 1309.316406 587.144531 1309.382812 587.820312 1309.515625 588.488281 C 1309.648438 589.15625 1309.84375 589.804688 1310.105469 590.433594 C 1310.367188 591.0625 1310.683594 591.660156 1311.0625 592.226562 C 1311.441406 592.792969 1311.871094 593.316406 1312.355469 593.800781 C 1312.835938 594.28125 1313.359375 594.710938 1313.925781 595.089844 C 1314.492188 595.46875 1315.089844 595.789062 1315.71875 596.046875 C 1316.347656 596.308594 1316.996094 596.507812 1317.667969 596.640625 C 1318.335938 596.773438 1319.007812 596.839844 1319.691406 596.839844 L 1361.191406 596.839844 C 1361.875 596.839844 1362.546875 596.773438 1363.214844 596.640625 C 1363.882812 596.507812 1364.53125 596.308594 1365.164062 596.046875 C 1365.792969 595.789062 1366.390625 595.46875 1366.957031 595.089844 C 1367.523438 594.710938 1368.046875 594.28125 1368.527344 593.800781 C 1369.011719 593.316406 1369.441406 592.792969 1369.820312 592.226562 C 1370.195312 591.660156 1370.515625 591.0625 1370.777344 590.433594 C 1371.039062 589.804688 1371.234375 589.15625 1371.367188 588.488281 C 1371.5 587.820312 1371.566406 587.144531 1371.566406 586.464844 C 1371.566406 585.785156 1371.5 585.109375 1371.367188 584.441406 C 1371.234375 583.773438 1371.039062 583.125 1370.777344 582.496094 C 1370.515625 581.863281 1370.195312 581.265625 1369.820312 580.699219 C 1369.441406 580.132812 1369.011719 579.609375 1368.527344 579.128906 C 1368.046875 578.648438 1367.523438 578.21875 1366.957031 577.839844 C 1366.390625 577.460938 1365.792969 577.140625 1365.164062 576.878906 C 1364.53125 576.621094 1363.882812 576.421875 1363.214844 576.289062 C 1362.546875 576.15625 1361.875 576.089844 1361.191406 576.089844 Z M 1319.691406 576.089844 "/><path style=" stroke:none;fill-rule:nonzero;fill:#e6e6e6;fill-opacity:1;" d="M 892.480469 555.96875 L 1371.566406 555.96875 L 1371.566406 558.699219 L 892.480469 558.699219 Z M 892.480469 555.96875 "/><path style=" stroke:none;fill-rule:nonzero;fill:#2563eb;fill-opacity:1;" d="M 852.769531 519.121094 C 852.769531 521.097656 852.671875 523.074219 852.476562 525.042969 C 852.285156 527.011719 851.992188 528.96875 851.605469 530.910156 C 851.222656 532.847656 850.742188 534.765625 850.167969 536.660156 C 849.589844 538.554688 848.925781 540.414062 848.167969 542.242188 C 847.410156 544.070312 846.566406 545.859375 845.632812 547.601562 C 844.699219 549.347656 843.683594 551.042969 842.582031 552.691406 C 841.484375 554.335938 840.308594 555.921875 839.050781 557.453125 C 837.796875 558.980469 836.46875 560.445312 835.070312 561.84375 C 833.667969 563.246094 832.203125 564.574219 830.675781 565.828125 C 829.144531 567.082031 827.558594 568.261719 825.910156 569.359375 C 824.265625 570.460938 822.570312 571.476562 820.824219 572.410156 C 819.078125 573.339844 817.292969 574.1875 815.464844 574.945312 C 813.632812 575.699219 811.773438 576.367188 809.878906 576.941406 C 807.984375 577.515625 806.066406 577.996094 804.125 578.382812 C 802.1875 578.769531 800.230469 579.058594 798.261719 579.253906 C 796.292969 579.445312 794.316406 579.542969 792.335938 579.542969 C 790.359375 579.542969 788.382812 579.445312 786.414062 579.253906 C 784.445312 579.058594 782.488281 578.769531 780.546875 578.382812 C 778.605469 577.996094 776.6875 577.515625 774.796875 576.941406 C 772.902344 576.367188 771.039062 575.699219 769.210938 574.945312 C 767.382812 574.1875 765.59375 573.339844 763.851562 572.410156 C 762.105469 571.476562 760.410156 570.460938 758.761719 569.359375 C 757.117188 568.261719 755.53125 567.082031 754 565.828125 C 752.46875 564.574219 751.003906 563.246094 749.605469 561.84375 C 748.207031 560.445312 746.878906 558.980469 745.625 557.453125 C 744.367188 555.921875 743.191406 554.335938 742.089844 552.6875 C 740.992188 551.042969 739.976562 549.347656 739.042969 547.601562 C 738.109375 545.859375 737.261719 544.070312 736.507812 542.242188 C 735.75 540.414062 735.082031 538.554688 734.507812 536.660156 C 733.933594 534.765625 733.453125 532.847656 733.066406 530.910156 C 732.679688 528.96875 732.390625 527.011719 732.195312 525.042969 C 732.003906 523.074219 731.90625 521.097656 731.90625 519.121094 C 731.90625 517.140625 732.003906 515.167969 732.195312 513.199219 C 732.390625 511.230469 732.679688 509.273438 733.066406 507.332031 C 733.453125 505.390625 733.933594 503.472656 734.507812 501.582031 C 735.082031 499.6875 735.75 497.824219 736.507812 495.996094 C 737.261719 494.167969 738.109375 492.382812 739.042969 490.636719 C 739.976562 488.890625 740.992188 487.195312 742.089844 485.550781 C 743.191406 483.90625 744.367188 482.320312 745.625 480.789062 C 746.878906 479.257812 748.207031 477.792969 749.605469 476.394531 C 751.003906 474.996094 752.46875 473.667969 754 472.414062 C 755.53125 471.15625 757.117188 469.980469 758.761719 468.878906 C 760.410156 467.78125 762.105469 466.765625 763.851562 465.832031 C 765.59375 464.898438 767.382812 464.054688 769.210938 463.296875 C 771.039062 462.539062 772.902344 461.875 774.796875 461.300781 C 776.6875 460.726562 778.605469 460.246094 780.546875 459.859375 C 782.488281 459.472656 784.445312 459.183594 786.414062 458.988281 C 788.382812 458.792969 790.359375 458.699219 792.335938 458.699219 C 794.316406 458.699219 796.292969 458.796875 798.261719 458.988281 C 800.230469 459.183594 802.1875 459.472656 804.125 459.859375 C 806.066406 460.246094 807.984375 460.726562 809.878906 461.300781 C 811.773438 461.875 813.632812 462.539062 815.464844 463.296875 C 817.292969 464.054688 819.078125 464.898438 820.824219 465.832031 C 822.570312 466.765625 824.265625 467.78125 825.910156 468.878906 C 827.558594 469.980469 829.144531 471.15625 830.675781 472.414062 C 832.203125 473.667969 833.667969 474.996094 835.070312 476.394531 C 836.46875 477.792969 837.796875 479.257812 839.050781 480.789062 C 840.308594 482.320312 841.484375 483.90625 842.582031 485.550781 C 843.683594 487.195312 844.699219 488.890625 845.632812 490.636719 C 846.566406 492.382812 847.410156 494.167969 848.167969 495.996094 C 848.925781 497.824219 849.589844 499.6875 850.167969 501.582031 C 850.742188 503.472656 851.222656 505.390625 851.605469 507.332031 C 851.992188 509.273438 852.285156 511.230469 852.476562 513.199219 C 852.671875 515.167969 852.769531 517.140625 852.769531 519.121094 Z M 852.769531 519.121094 "/><path style=" stroke:none;fill-rule:nonzero;fill:#3f3d56;fill-opacity:1;" d="M 893.238281 540.726562 L 891.722656 538.457031 L 941.507812 505.269531 L 975.648438 521.65625 L 1024.75 490.289062 L 1025.414062 490.570312 L 1122.429688 531.949219 L 1200.21875 493.746094 L 1275.75 524.359375 L 1370.664062 440.308594 L 1372.472656 442.355469 L 1276.296875 527.527344 L 1200.324219 496.734375 L 1122.507812 534.953125 L 1025.007812 493.363281 L 975.835938 524.773438 L 941.730469 508.40625 Z M 893.238281 540.726562 "/><path style=" stroke:none;fill-rule:nonzero;fill:#e6e6e6;fill-opacity:1;" d="M 901.351562 577.515625 C 900.769531 577.515625 900.191406 577.574219 899.621094 577.6875 C 899.050781 577.800781 898.496094 577.96875 897.957031 578.191406 C 897.417969 578.414062 896.90625 578.6875 896.421875 579.011719 C 895.9375 579.335938 895.492188 579.703125 895.078125 580.117188 C 894.667969 580.527344 894.300781 580.976562 893.976562 581.460938 C 893.652344 581.945312 893.378906 582.457031 893.15625 582.992188 C 892.933594 583.53125 892.765625 584.085938 892.652344 584.65625 C 892.539062 585.230469 892.480469 585.804688 892.480469 586.386719 C 892.480469 586.96875 892.539062 587.546875 892.652344 588.117188 C 892.765625 588.691406 892.933594 589.246094 893.15625 589.78125 C 893.378906 590.320312 893.652344 590.832031 893.976562 591.316406 C 894.300781 591.800781 894.667969 592.25 895.078125 592.660156 C 895.492188 593.074219 895.9375 593.441406 896.421875 593.765625 C 896.90625 594.085938 897.417969 594.359375 897.957031 594.582031 C 898.496094 594.804688 899.050781 594.976562 899.621094 595.089844 C 900.191406 595.203125 900.769531 595.257812 901.351562 595.257812 L 994.167969 595.257812 C 994.75 595.257812 995.328125 595.203125 995.898438 595.089844 C 996.46875 594.976562 997.023438 594.804688 997.5625 594.582031 C 998.101562 594.359375 998.613281 594.085938 999.097656 593.765625 C 999.582031 593.441406 1000.027344 593.074219 1000.441406 592.660156 C 1000.851562 592.25 1001.21875 591.800781 1001.542969 591.316406 C 1001.867188 590.832031 1002.140625 590.320312 1002.363281 589.78125 C 1002.585938 589.246094 1002.753906 588.691406 1002.867188 588.117188 C 1002.984375 587.546875 1003.039062 586.96875 1003.039062 586.386719 C 1003.039062 585.804688 1002.984375 585.230469 1002.867188 584.65625 C 1002.753906 584.085938 1002.585938 583.53125 1002.363281 582.992188 C 1002.140625 582.457031 1001.867188 581.945312 1001.542969 581.460938 C 1001.21875 580.976562 1000.851562 580.527344 1000.441406 580.117188 C 1000.027344 579.703125 999.582031 579.335938 999.097656 579.011719 C 998.613281 578.6875 998.101562 578.414062 997.5625 578.191406 C 997.023438 577.96875 996.46875 577.800781 995.898438 577.6875 C 995.328125 577.574219 994.75 577.515625 994.167969 577.515625 Z M 901.351562 577.515625 "/><path style=" stroke:none;fill-rule:nonzero;fill:#ffffff;fill-opacity:1;" d="M 792.328125 558.941406 L 816.792969 524.496094 L 792.328125 538.9375 L 767.882812 524.496094 Z M 792.328125 558.941406 "/><path style=" stroke:none;fill-rule:nonzero;fill:#ffffff;fill-opacity:1;" d="M 792.328125 534.308594 L 816.777344 519.859375 L 792.328125 479.296875 L 767.882812 519.859375 Z M 792.328125 534.308594 "/><g clip-rule="nonzero" clip-path="url(#d2f1c9e858)"><g clip-rule="nonzero" clip-path="url(#ba1f69e2be)"><g transform="matrix(1,0,0,1,456,128)"><g id="c77fa9ee39" clip-path="url(#a317b4f0e2)"><g clip-rule="nonzero" clip-path="url(#a90e8df414)"><g clip-rule="nonzero" clip-path="url(#58c0030132)"><path style=" stroke:none;fill-rule:nonzero;fill:#2563eb;fill-opacity:1;" d="M 0.617188 0.0390625 L 94.847656 0.0390625 L 94.847656 94.265625 L 0.617188 94.265625 Z M 0.617188 0.0390625 "/></g></g></g></g></g></g><g clip-rule="nonzero" clip-path="url(#095300bdf2)"><g clip-rule="nonzero" clip-path="url(#606064d1ba)"><g transform="matrix(1,0,0,1,746,468)"><g id="f3c6b13924" clip-path="url(#e4299f0ecc)"><g clip-rule="nonzero" clip-path="url(#f6f3ba15ad)"><g clip-rule="nonzero" clip-path="url(#c7fbb75452)"><path style=" stroke:none;fill-rule:nonzero;fill:#2563eb;fill-opacity:1;" d="M 0.625 0.339844 L 94.851562 0.339844 L 94.851562 94.566406 L 0.625 94.566406 Z M 0.625 0.339844 "/></g></g></g></g></g></g><g clip-rule="nonzero" clip-path="url(#91dfa6924d)"><g clip-rule="nonzero" clip-path="url(#79cf9fba22)"><g transform="matrix(1,0,0,1,367,816)"><g id="0c43cfc03f" clip-path="url(#eea5b66fd5)"><g clip-rule="nonzero" clip-path="url(#fa8145666c)"><g clip-rule="nonzero" clip-path="url(#3830cb5e49)"><path style=" stroke:none;fill-rule:nonzero;fill:#2563eb;fill-opacity:1;" d="M 0.09375 0.882812 L 94.324219 0.882812 L 94.324219 95.113281 L 0.09375 95.113281 Z M 0.09375 0.882812 "/></g></g></g></g></g></g><g style="fill:#ffffff;fill-opacity:1;"><g transform="translate(487.253785, 198.15288)"><path style="stroke:none" d="M 17.046875 5.390625 L 17.09375 0.5 C 12.625 0.125 9.078125 -1.242188 6.453125 -3.609375 C 3.835938 -5.984375 2.472656 -9.296875 2.359375 -13.546875 L 11.1875 -13.546875 C 11.320312 -11.796875 11.925781 -10.390625 13 -9.328125 C 14.070312 -8.273438 15.460938 -7.585938 17.171875 -7.265625 L 17.28125 -18.421875 L 15.265625 -18.921875 C 11.617188 -19.796875 8.742188 -21.179688 6.640625 -23.078125 C 4.535156 -24.972656 3.488281 -27.507812 3.5 -30.6875 C 3.488281 -33.082031 4.078125 -35.207031 5.265625 -37.0625 C 6.460938 -38.914062 8.113281 -40.410156 10.21875 -41.546875 C 12.332031 -42.679688 14.765625 -43.382812 17.515625 -43.65625 L 17.5625 -48.5625 L 22.53125 -48.5625 L 22.484375 -43.609375 C 26.546875 -43.171875 29.785156 -41.789062 32.203125 -39.46875 C 34.617188 -37.144531 35.859375 -34.238281 35.921875 -30.75 L 27.171875 -30.75 C 26.898438 -33.46875 25.3125 -35.171875 22.40625 -35.859375 L 22.328125 -25.3125 L 23.5625 -25.015625 C 26.0625 -24.453125 28.285156 -23.632812 30.234375 -22.5625 C 32.179688 -21.5 33.710938 -20.128906 34.828125 -18.453125 C 35.953125 -16.773438 36.515625 -14.734375 36.515625 -12.328125 C 36.492188 -8.671875 35.222656 -5.703125 32.703125 -3.421875 C 30.179688 -1.140625 26.632812 0.175781 22.0625 0.53125 L 22.03125 5.390625 Z M 22.15625 -7.265625 C 23.738281 -7.585938 24.988281 -8.195312 25.90625 -9.09375 C 26.820312 -9.988281 27.285156 -11.078125 27.296875 -12.359375 C 27.285156 -13.546875 26.847656 -14.507812 25.984375 -15.25 C 25.117188 -15.988281 23.867188 -16.609375 22.234375 -17.109375 Z M 17.34375 -26.609375 L 17.4375 -35.921875 C 15.957031 -35.609375 14.820312 -35.039062 14.03125 -34.21875 C 13.25 -33.394531 12.859375 -32.421875 12.859375 -31.296875 C 12.828125 -30.085938 13.238281 -29.113281 14.09375 -28.375 C 14.957031 -27.644531 16.039062 -27.054688 17.34375 -26.609375 Z M 17.34375 -26.609375 "/></g></g><g style="fill:#ffffff;fill-opacity:1;"><g transform="translate(770.999349, 540.679787)"><path style="stroke:none" d="M 32 -28.3125 L 29.90625 -23.6875 L 16.375 -23.6875 C 16.332031 -23 16.3125 -22.285156 16.3125 -21.546875 C 16.3125 -20.828125 16.332031 -20.140625 16.375 -19.484375 L 27.96875 -19.484375 L 25.671875 -14.75 L 17.109375 -14.75 C 17.816406 -12.25 18.9375 -10.421875 20.46875 -9.265625 C 22 -8.117188 23.832031 -7.546875 25.96875 -7.546875 C 27.820312 -7.546875 29.421875 -7.882812 30.765625 -8.5625 C 32.109375 -9.25 33.164062 -9.875 33.9375 -10.4375 L 37.359375 -3.21875 C 35.828125 -1.957031 34.085938 -1.003906 32.140625 -0.359375 C 30.203125 0.273438 28.144531 0.59375 25.96875 0.59375 C 21.414062 0.59375 17.519531 -0.738281 14.28125 -3.40625 C 11.050781 -6.082031 8.90625 -9.863281 7.84375 -14.75 L 1.734375 -14.75 L 3.4375 -19.484375 L 7.203125 -19.484375 C 7.160156 -20.148438 7.140625 -20.835938 7.140625 -21.546875 C 7.140625 -22.273438 7.160156 -22.988281 7.203125 -23.6875 L 1.734375 -23.6875 L 3.4375 -28.3125 L 7.84375 -28.3125 C 8.894531 -33.21875 11.039062 -37.019531 14.28125 -39.71875 C 17.519531 -42.414062 21.414062 -43.765625 25.96875 -43.765625 C 28.226562 -43.765625 30.320312 -43.425781 32.25 -42.75 C 34.175781 -42.070312 35.921875 -41.101562 37.484375 -39.84375 L 34.109375 -32.625 C 33.265625 -33.21875 32.160156 -33.863281 30.796875 -34.5625 C 29.441406 -35.269531 27.832031 -35.625 25.96875 -35.625 C 23.832031 -35.625 22 -35.03125 20.46875 -33.84375 C 18.9375 -32.664062 17.816406 -30.820312 17.109375 -28.3125 Z M 32 -28.3125 "/></g></g><g style="fill:#ffffff;fill-opacity:1;"><g transform="translate(380.906377, 884.029877)"><path style="stroke:none" d="M 59.671875 -31.171875 L 59.671875 -26.53125 L 55.453125 -26.53125 L 54.515625 -22.96875 L 59.671875 -22.96875 L 59.671875 -18.34375 L 53.28125 -18.34375 L 48.421875 0 L 39.125 0 L 34.015625 -18.34375 L 28.15625 -18.34375 L 23.015625 0 L 13.71875 0 L 8.859375 -18.34375 L 2.46875 -18.34375 L 2.46875 -22.96875 L 7.625 -22.96875 L 6.6875 -26.53125 L 2.46875 -26.53125 L 2.46875 -31.171875 L 5.453125 -31.171875 L 2.28125 -43.171875 L 10.625 -43.171875 L 13.765625 -31.171875 L 23.6875 -31.171875 L 26.9375 -43.171875 L 35.203125 -43.171875 L 38.421875 -31.171875 L 48.375 -31.171875 L 51.515625 -43.171875 L 59.859375 -43.171875 L 56.6875 -31.171875 Z M 40.640625 -22.96875 L 46.234375 -22.96875 L 47.171875 -26.53125 L 39.671875 -26.53125 Z M 14.984375 -26.53125 L 15.921875 -22.96875 L 21.484375 -22.96875 L 22.453125 -26.53125 Z M 45.03125 -18.34375 L 41.890625 -18.34375 L 43.296875 -13.109375 L 43.65625 -13.109375 Z M 17.140625 -18.34375 L 18.484375 -13.171875 L 18.84375 -13.171875 L 20.234375 -18.34375 Z M 29.453125 -22.96875 L 32.71875 -22.96875 L 31.71875 -26.53125 L 30.453125 -26.53125 Z M 29.453125 -22.96875 "/></g></g></g></g></g></svg>