<svg width="316" height="97" viewBox="0 0 316 97" fill="none" xmlns="http://www.w3.org/2000/svg">
<path d="M91.1822 48.4547C91.1822 58.8183 89.167 67.5607 85.1367 74.6819C81.1064 81.7728 75.667 87.1516 68.8185 90.8183C61.9701 94.4547 54.3337 96.2728 45.9094 96.2728C37.4246 96.2728 29.7579 94.4395 22.9094 90.7728C16.0913 87.0759 10.667 81.6819 6.63672 74.591C2.63672 67.4698 0.636719 58.7577 0.636719 48.4547C0.636719 38.091 2.63672 29.3637 6.63672 22.2728C10.667 15.1516 16.0913 9.77284 22.9094 6.13647C29.7579 2.46981 37.4246 0.636475 45.9094 0.636475C54.3337 0.636475 61.9701 2.46981 68.8185 6.13647C75.667 9.77284 81.1064 15.1516 85.1367 22.2728C89.167 29.3637 91.1822 38.091 91.1822 48.4547ZM65.1822 48.4547C65.1822 42.8789 64.4398 38.1819 62.9549 34.3638C61.5004 30.5153 59.3337 27.6062 56.4549 25.6365C53.6064 23.6365 50.0913 22.6365 45.9094 22.6365C41.7276 22.6365 38.1973 23.6365 35.3185 25.6365C32.4701 27.6062 30.3034 30.5153 28.8185 34.3638C27.364 38.1819 26.6367 42.8789 26.6367 48.4547C26.6367 54.0304 27.364 58.7425 28.8185 62.591C30.3034 66.4092 32.4701 69.3183 35.3185 71.3183C38.1973 73.288 41.7276 74.2728 45.9094 74.2728C50.0913 74.2728 53.6064 73.288 56.4549 71.3183C59.3337 69.3183 61.5004 66.4092 62.9549 62.591C64.4398 58.7425 65.1822 54.0304 65.1822 48.4547Z" fill="#FBD213"/>
<path d="M106 95.0001V1.90918H171.455V22.2728H131.273V38.2728H167.455V58.6365H131.273V95.0001H106Z" fill="#344FA3"/>
<path d="M207.636 95.0001L180.182 1.90918H208.363L221.091 59.1819H221.818L236.909 1.90918H259.091L274.182 59.3637H274.909L287.636 1.90918H315.818L288.363 95.0001H264.182L248.363 43.0001H247.636L231.818 95.0001H207.636Z" fill="#E21F2A"/>
</svg>
