<svg width="1524" height="216" viewBox="0 0 1524 216" fill="none" xmlns="http://www.w3.org/2000/svg">
<path d="M268.004 0L219.316 66.299H484.676C498.095 66.299 497.928 71.3628 491.369 80.3167C484.71 89.3712 473.567 105.032 466.774 114.254C463.327 118.916 457.103 127.4 477.716 127.4H586.236L618.394 83.6032C638.338 56.4732 620.134 0.0335167 548.825 0.0335167L268.004 0Z" fill="#A1A1AA"/>
<path d="M199.606 216L297.418 82.7983H418.788C432.207 82.7983 432.039 87.8957 425.481 96.816L400.718 130.619C397.271 135.281 391.047 143.765 411.66 143.765H574.223C560.737 162.344 516.834 216 438.129 216H199.606ZM759.708 143.732L706.669 216H566.761L619.799 143.732H759.708ZM974.004 127.367H631.846L725.408 0H865.25L811.642 73.0396H874.05L927.725 0H1067.57L974.004 127.367ZM961.991 143.732L908.952 216H769.111L822.15 143.732H961.991ZM0 172.237H206.064L194.821 187.562H0V172.237ZM0 143.732H227.012L215.735 159.057H0V143.732ZM0 200.742H185.15L173.94 216H0V200.742ZM1524 187.562H1318.67L1329.95 172.237H1524V187.562ZM1524 216H1297.82L1309 200.742H1524V216ZM1350.86 143.732H1524V159.091H1339.62L1350.86 143.732ZM1261.25 0L1167.69 127.367H1019.48L1113.11 0H1261.25ZM1007.5 143.732C1007.5 143.732 997.294 157.749 992.308 164.456C974.774 188.266 990.267 215.966 1047.59 215.966H1272.19L1325.23 143.732H1007.5Z" fill="#A1A1AA"/>
</svg>
