<svg width="1522" height="293" viewBox="0 0 1522 293" fill="none" xmlns="http://www.w3.org/2000/svg">
<path d="M56.2711 216.667C64.7328 227.446 72.434 238.802 79.3191 250.65C85.1975 261.794 87.6479 269.35 91.9445 282.776C94.5789 290.194 96.9602 292.408 102.079 292.408C107.659 292.408 110.19 288.641 112.145 282.816C116.206 270.137 119.393 260.46 124.42 251.317C134.284 233.664 146.542 217.978 158.586 202.901C161.848 198.634 182.929 173.776 192.419 154.162C192.419 154.162 204.084 132.616 204.084 102.526C204.084 74.3786 192.58 54.8567 192.58 54.8567L159.461 63.7235L139.346 116.683L134.371 123.985L133.376 125.308L132.053 126.964L129.729 129.609L126.41 132.927L108.499 147.515L63.7198 173.362L56.2711 216.667Z" fill="#A1A1AA"/>
<path d="M10.0544 150.54C20.9831 175.495 42.0581 197.432 56.3171 216.684L132.053 126.998C132.053 126.998 121.383 140.948 102.028 140.948C80.4695 140.948 63.0526 123.738 63.0526 102.037C63.0526 87.1554 72.0084 76.9316 72.0084 76.9316L20.5977 90.7033L10.0544 150.54Z" fill="#A1A1AA"/>
<path d="M132.898 4.61164C158.051 12.7194 179.581 29.7399 192.603 54.8394L132.076 126.946C132.076 126.946 141.032 116.539 141.032 101.749C141.032 79.5421 122.326 62.9529 102.12 62.9529C83.0119 62.9529 72.0372 76.8798 72.0372 76.8798V31.4534L132.898 4.61164Z" fill="#A1A1AA"/>
<path d="M23.9281 36.4733C38.9521 18.504 65.388 0 101.832 0C119.514 0 132.835 4.64039 132.835 4.64039L71.9797 76.92H28.8633L23.9281 36.4733Z" fill="#A1A1AA"/>
<path d="M10.0544 150.54C10.0544 150.54 0 130.857 0 102.342C0 75.3905 10.4801 51.832 23.9281 36.4733L72.0141 76.9258L10.0544 150.54Z" fill="#A1A1AA"/>
<path d="M1044.71 237.166V83.4811H1064.46L1117.93 177.065H1118.79L1172.25 83.4811H1192.01V237.166H1172.25V145.939L1173.12 120.179H1172.25L1124.17 204.534H1112.58L1064.49 120.179H1063.63L1064.49 145.939V237.16L1044.71 237.166ZM1249.76 240.386C1238.6 240.386 1229.25 237.166 1221.74 230.726C1214.24 224.286 1210.47 215.775 1210.47 205.183C1210.47 193.683 1214.9 184.759 1223.78 178.244C1232.66 171.729 1243.6 168.48 1256.57 168.48C1268.16 168.48 1277.68 170.625 1285.12 174.92V171.913C1285.12 164.185 1282.48 157.998 1277.19 153.351C1271.89 148.705 1265.38 146.376 1257.64 146.376C1251.92 146.376 1246.74 147.733 1242.08 150.402C1237.43 153.07 1234.25 156.842 1232.53 161.557L1214.5 153.834C1216.93 147.538 1221.73 141.759 1228.88 136.342C1236.03 130.926 1245.48 128.292 1257.22 128.292C1270.68 128.292 1281.83 132.231 1290.71 140.097C1299.58 147.964 1304.02 159.061 1304.02 173.374V236.965H1285.13V222.359H1284.27C1276.39 234.435 1264.87 240.386 1249.76 240.386ZM1252.98 222.359C1261.13 222.359 1268.54 219.312 1275.2 213.239C1281.86 207.167 1285.18 200.014 1285.18 191.676C1279.6 187.093 1271.23 184.805 1260.06 184.805C1250.47 184.805 1243.24 186.875 1238.38 191.032C1233.52 195.19 1231.07 200.049 1231.07 205.626C1231.07 210.778 1233.29 214.855 1237.73 217.863C1242.16 220.87 1247.25 222.371 1252.97 222.371L1252.98 222.359ZM1378.04 240.386C1370.02 240.386 1362.83 238.661 1356.47 235.234C1350.1 231.807 1345.34 227.506 1342.2 222.353H1341.34L1342.2 236.947V283.311H1322.45V131.783H1341.35V146.376H1342.21C1345.36 141.224 1350.12 136.935 1356.48 133.496C1362.84 130.057 1370.04 128.344 1378.05 128.344C1391.64 128.344 1403.38 133.709 1413.26 144.444C1423.14 155.18 1428.08 168.48 1428.08 184.368C1428.08 200.256 1423.13 213.561 1413.26 224.291C1403.39 235.021 1391.64 240.392 1378.05 240.392L1378.04 240.386ZM1374.81 222.359C1383.98 222.359 1391.84 218.886 1398.43 212.009C1405.02 205.132 1408.31 195.874 1408.31 184.425C1408.31 172.977 1405.02 163.725 1398.43 156.842C1391.85 149.959 1383.97 146.491 1374.81 146.491C1365.51 146.491 1357.6 149.924 1351.09 156.796C1344.58 163.667 1341.33 172.896 1341.33 184.483C1341.33 196.069 1344.58 205.298 1351.09 212.17C1357.59 219.041 1365.51 222.474 1374.81 222.474V222.359ZM1480.56 240.386C1468.83 240.386 1459.13 237.522 1451.47 231.801C1443.81 226.08 1438.24 218.921 1434.62 210.336L1452.22 203.033C1457.8 216.258 1467.32 222.773 1480.78 222.773C1486.94 222.773 1491.99 221.416 1495.92 218.748C1499.86 216.08 1501.83 212.452 1501.83 208.018C1501.83 201.153 1497.03 196.495 1487.44 194.068L1466.18 188.922C1459.45 187.208 1453.09 183.948 1447.08 179.158C1441.06 174.368 1438.06 167.888 1438.06 159.74C1438.06 150.442 1442.17 142.892 1450.4 137.084C1458.63 131.277 1468.4 128.39 1479.71 128.39C1489.01 128.39 1497.31 130.5 1504.61 134.715C1511.77 138.775 1517.31 145.181 1520.29 152.851L1503.1 159.935C1499.25 150.637 1491.23 145.985 1479.06 145.985C1473.19 145.985 1468.25 147.204 1464.25 149.631C1460.25 152.058 1458.24 155.358 1458.24 159.51C1458.24 165.519 1462.84 169.596 1472.19 171.746L1493.02 176.68C1502.89 178.968 1510.19 182.907 1514.91 188.485C1519.64 194.063 1522 200.365 1522 207.38C1522 216.822 1518.13 224.631 1510.4 230.99C1502.67 237.35 1492.73 240.432 1480.49 240.432L1480.56 240.386ZM459.372 145.537H378.35V169.573H435.87C433.034 203.269 404.982 217.644 378.506 217.644C370.116 217.682 361.803 216.049 354.052 212.84C346.3 209.63 339.267 204.909 333.361 198.952C327.455 192.995 322.796 185.922 319.655 178.145C316.514 170.367 314.954 162.043 315.068 153.656C315.068 117.275 343.24 89.2543 378.569 89.2543C405.833 89.2543 421.881 106.631 421.881 106.631L438.717 89.2083C438.717 89.2083 417.107 65.1726 377.706 65.1726C327.532 65.1726 288.706 107.511 288.706 153.242C288.706 198.047 325.231 241.755 378.989 241.755C426.27 241.755 460.896 209.37 460.896 161.482C460.896 151.385 459.429 145.543 459.429 145.543L459.372 145.537Z" fill="#A1A1AA"/>
<path d="M525.887 128.442C492.641 128.442 468.817 154.421 468.817 184.724C468.817 215.476 491.928 241.938 526.336 241.938C557.436 241.938 582.912 218.179 582.912 185.38C582.912 147.791 553.272 128.43 525.945 128.43L525.887 128.442ZM526.215 150.735C542.568 150.735 558.058 163.949 558.058 185.236C558.058 206.075 542.625 219.68 526.135 219.68C508.016 219.68 493.722 205.172 493.722 185.081C493.722 165.427 507.843 150.741 526.209 150.741L526.215 150.735Z" fill="#A1A1AA"/>
<path d="M649.416 128.442C616.169 128.442 592.345 154.421 592.345 184.724C592.345 215.476 615.456 241.938 649.864 241.938C680.965 241.938 706.44 218.179 706.44 185.38C706.44 147.791 676.8 128.43 649.473 128.43L649.416 128.442ZM649.743 150.735C666.096 150.735 681.586 163.949 681.586 185.236C681.586 206.075 666.154 219.68 649.663 219.68C631.544 219.68 617.251 205.172 617.251 185.081C617.251 165.427 631.372 150.741 649.738 150.741L649.743 150.735Z" fill="#A1A1AA"/>
<path d="M771.046 128.442C740.532 128.442 716.54 155.163 716.54 185.15C716.54 219.306 744.345 241.962 770.511 241.962C786.691 241.962 795.29 235.539 801.652 228.161V239.351C801.652 258.93 789.757 270.661 771.742 270.661C754.4 270.661 745.709 257.769 742.683 250.455L720.866 259.574C728.608 275.934 744.184 293 771.932 293C802.273 293 825.401 273.898 825.401 233.773V131.823H801.6V141.437C794.283 133.559 784.275 128.413 771 128.413L771.046 128.442ZM773.254 150.695C788.221 150.695 803.579 163.46 803.579 185.271C803.579 207.443 788.25 219.657 772.921 219.657C756.654 219.657 741.515 206.454 741.515 185.478C741.515 163.627 757.23 150.689 773.254 150.689V150.695ZM931.628 128.442C902.845 128.442 878.67 151.327 878.67 185.121C878.67 220.864 905.606 242.071 934.389 242.071C958.409 242.071 973.157 228.932 981.946 217.161L962.389 204.108C957.299 212.009 948.78 219.737 934.579 219.737C918.617 219.737 911.283 210.997 906.739 202.533L982.86 170.907L978.909 161.706C971.546 143.582 954.394 128.447 931.743 128.447L931.628 128.442ZM932.617 150.269C942.994 150.269 950.448 155.789 953.629 162.391L902.794 183.632C900.608 167.186 916.178 150.269 932.617 150.269ZM842.312 238.69H867.31V71.3597H842.312V238.69Z" fill="#A1A1AA"/>
</svg>
