<svg width="723" height="242" viewBox="0 0 723 242" fill="none" xmlns="http://www.w3.org/2000/svg">
<path d="M348.733 38.607L334.696 103.027H355.918C366.846 103.027 375.644 101.604 382.292 98.7703C394.586 93.5212 402.362 83.4653 405.632 68.6024C408.33 56.0351 404.836 47.402 395.145 42.7028C389.735 40.0845 381.614 38.7149 370.793 38.607H348.733ZM326.306 135.232L312.27 199.653H333.491C344.42 199.653 353.218 198.229 359.865 195.396C372.149 190.147 379.936 180.102 383.206 165.228C385.904 152.66 382.41 144.038 372.718 139.328C367.308 136.71 359.188 135.351 348.367 135.232H326.306ZM241.387 0H414.85C445.279 0.443003 465.016 9.0104 474.03 25.7379C479.44 36.0095 480.623 48.3073 477.579 62.6206C474.31 77.365 467.824 89.2317 458.132 98.1883C452.83 103.221 445.559 107.813 436.319 111.952C448.043 116.436 456.046 123.549 460.337 133.271C464.726 142.993 465.403 154.794 462.359 168.677C459.197 182.99 452.657 195.837 442.74 207.198C436.319 214.731 428.983 221.08 420.765 226.21C411.515 232.116 401.2 236.158 389.809 238.335C378.537 240.523 366.533 241.623 353.798 241.623H230.867L271.063 58.116C272.054 52.6298 273.076 38.8985 258.705 38.8985L232.847 38.9096L241.387 0ZM273.924 60.3249C273.924 60.3249 274.168 59.4725 274.409 58.116L273.924 60.3249ZM694.776 0H723L705.876 81.5253H669.629C668.866 70.4456 666.552 62.0924 662.68 56.4448C655.893 46.421 643.599 41.4093 625.819 41.4093C607.706 41.4093 591.862 48.512 578.288 62.7175C564.703 76.8261 555.109 96.8303 549.505 122.741C543.783 148.651 545.02 168.084 553.216 181.039C561.412 193.897 574.018 200.321 591.056 200.321C608.523 200.321 623.066 194.781 634.704 183.701C641.06 177.752 647.213 168.817 653.139 156.907H688.893C681.181 180.306 669.338 200.698 646.998 218.87C630.746 232.084 610.341 242 582.645 242C548.376 242 517.398 238.691 495.908 210.032C480.247 189.155 474.611 159.257 482.807 121.954C491.648 81.6331 512.666 50.5492 539.717 28.7128C563.327 9.70026 602.952 0.194006 632.929 0.18331C661.228 0.18331 677.534 6.5314 689.237 19.2282L694.776 0ZM10.5515 0H126.835L83.768 198.176H157.791C165.234 197.852 178.97 195.848 181.239 185.566L186.704 160.593H226.77L209.022 241.623H0L40.3566 57.3932C41.2805 51.5192 41.6585 38.8979 27.8797 38.8979L2.02206 38.909L10.5515 0Z" fill="#A1A1AA"/>
</svg>
