<svg width="1522" height="308" viewBox="0 0 1522 308" fill="none" xmlns="http://www.w3.org/2000/svg">
<path d="M505.974 70.6885H497.816C489.852 70.6885 486.356 73.0189 481.112 81.7579L437.604 152.252L419.541 82.5347C417.404 74.1841 415.073 70.8827 405.944 70.8827H399.146C390.212 70.8827 384.579 76.1261 382.831 85.4477L362.631 198.86C361.077 207.405 364.961 211.871 372.342 211.871H375.45C383.219 211.871 386.715 207.987 388.075 199.637L404.39 107.975L420.123 169.342C421.483 175.556 422.648 179.634 434.496 179.634C444.402 179.634 446.733 176.139 450.229 170.507L488.687 107.392L472.372 199.054C470.818 207.793 474.702 212.066 481.889 212.066H485.191C492.96 212.066 496.456 207.987 497.816 199.831L517.822 85.6419C519.57 76.5145 515.103 70.6885 505.974 70.6885Z" fill="#A1A1AA"/>
<path d="M627.369 151.864C626.397 124.288 607.751 104.091 576.286 104.091C540.353 104.091 518.405 133.415 519.376 165.458C520.541 194.782 540.741 213.619 570.459 213.619C607.363 213.425 628.34 183.907 627.369 151.864ZM570.653 193.422C553.755 193.422 543.072 181.188 542.489 164.487C541.712 142.931 555.891 123.899 576.091 123.899C591.63 123.899 603.867 136.134 604.449 153.029C605.032 175.75 590.853 193.422 570.653 193.422Z" fill="#A1A1AA"/>
<path d="M707.586 104.091C692.63 104.091 680.782 111.47 672.819 123.899C673.596 109.723 665.826 105.644 657.863 105.644C654.173 105.644 651.259 106.615 651.065 107.004L634.749 199.248C633.196 208.764 638.44 211.483 645.432 211.483H648.346C655.921 211.483 659.028 208.376 660.582 199.248L670.294 143.902C677.286 131.667 685.055 125.841 697.098 125.841C709.14 125.841 716.327 133.026 716.521 144.873C716.715 147.98 715.938 151.864 715.356 156.525L707.781 199.248C706.227 208.764 711.665 211.483 718.463 211.483H721.377C728.952 211.483 732.059 208.376 733.613 199.248L741.965 152.058C742.936 146.815 743.519 142.154 743.325 137.881C742.742 118.073 729.534 104.091 707.586 104.091Z" fill="#A1A1AA"/>
<path d="M1167.14 104.091C1154.9 104.091 1145.77 111.082 1139.56 123.899C1140.53 109.723 1132.76 105.644 1124.8 105.644C1120.91 105.644 1118.19 106.615 1118 107.004L1101.49 199.248C1099.93 208.764 1106.15 211.483 1113.14 211.483H1116.06C1122.66 211.483 1125.77 208.376 1127.52 199.248L1132.95 168.371C1137.03 144.29 1145.97 127.589 1160.34 127.589C1167.33 127.589 1171.8 130.502 1174.71 133.803C1175.1 134.192 1185.98 129.919 1185.59 117.102C1185.01 109.14 1177.04 104.091 1167.14 104.091Z" fill="#A1A1AA"/>
<path d="M1292.61 105.644C1282.51 105.644 1276.88 110.499 1273.58 123.317C1267.17 111.276 1253.96 103.897 1238.62 103.897C1205.98 103.897 1183.26 133.026 1183.26 166.04C1183.26 193.228 1199.96 213.425 1226.38 213.425C1242.5 213.425 1254.93 206.822 1262.89 193.422C1261.73 207.405 1264.45 211.677 1274.55 211.677C1283.48 211.677 1286.4 208.376 1287.37 198.472C1288.53 180.217 1294.75 150.504 1301.94 108.752C1301.94 107.975 1297.86 105.644 1292.61 105.644ZM1232.01 193.422C1216.09 193.422 1206.96 183.324 1206.96 165.458C1206.96 144.484 1219.19 123.511 1241.92 123.511C1260.37 123.511 1268.14 137.105 1268.14 152.058C1268.14 170.895 1255.32 193.422 1232.01 193.422Z" fill="#A1A1AA"/>
<path d="M1447.61 104.091C1429.74 104.091 1417.89 113.218 1409.54 126.618C1405.46 112.441 1393.22 104.091 1377.69 104.091C1364.09 104.091 1352.24 110.499 1344.08 122.734C1344.47 109.723 1336.9 105.839 1329.13 105.839C1325.24 105.839 1322.52 106.81 1322.33 107.198L1306.01 199.443C1304.46 208.958 1309.7 211.677 1316.7 211.677H1319.61C1326.21 211.677 1330.29 208.958 1331.85 199.443L1341.95 142.154C1349.33 130.696 1356.32 125.841 1367.2 125.841C1377.88 125.841 1384.48 133.803 1384.48 145.844C1384.48 147.786 1384.29 149.922 1383.9 152.252L1375.74 199.443C1374.19 208.958 1379.63 211.677 1386.43 211.677H1389.15C1395.75 211.677 1400.02 208.764 1401.58 199.443L1411.68 142.154C1419.06 130.696 1426.05 125.841 1436.93 125.841C1447.22 125.841 1454.8 132.055 1454.8 144.873C1454.8 147.98 1454.21 151.864 1453.44 156.525L1445.86 199.248C1444.31 208.764 1449.55 211.483 1456.54 211.483H1459.46C1467.03 211.483 1470.14 208.376 1471.69 199.248L1480.05 152.058C1481.02 146.815 1481.41 142.154 1481.41 137.881C1481.6 117.102 1467.62 104.091 1447.61 104.091Z" fill="#A1A1AA"/>
<path d="M861.224 150.31C861.224 135.939 858.31 126.424 851.901 118.073C844.908 109.14 831.895 103.702 816.745 103.702C770.906 103.702 754.396 137.493 754.396 166.817C754.396 194.782 774.596 213.425 805.673 213.425C836.75 213.425 854.231 199.637 854.231 188.567C854.231 181.188 848.987 178.663 842.966 178.081C834.808 188.567 823.543 193.617 808.198 193.617C794.602 193.617 778.481 188.373 777.315 164.098H847.822C855.397 164.293 861.224 160.02 861.224 150.31ZM838.498 147.009H779.646C785.279 132.055 798.293 122.734 814.802 122.734C823.154 122.734 829.564 125.064 833.837 129.725C837.527 133.997 838.887 139.823 838.498 147.009Z" fill="#A1A1AA"/>
<path d="M1080.12 136.134H1038.17C1033.12 136.134 1030.79 137.299 1029.23 138.852C1026.71 141.571 1025.35 147.786 1025.35 150.504C1025.54 154.777 1029.23 157.301 1036.03 157.301H1065.75C1061.67 178.081 1048.46 192.451 1025.74 192.451C1001.85 192.451 985.92 177.304 984.949 151.475C983.784 119.044 1005.34 92.2446 1035.84 92.2446C1053.71 92.2446 1067.69 101.76 1073.32 114.383C1074.1 115.354 1090.61 115.354 1090.03 101.178C1089.83 96.1286 1086.92 90.1084 1081.48 85.0593C1072.74 76.3203 1056.23 68.7465 1034.28 68.7465C1003.6 68.7465 979.316 85.6419 966.691 110.111C966.691 109.917 966.497 109.917 966.497 109.917C963.972 106.615 959.893 105.062 955.814 105.062C949.016 105.062 944.549 107.198 937.945 118.85L905.314 176.139L893.078 119.044C890.747 108.363 886.862 105.062 880.064 105.062C872.101 105.062 865.691 110.888 865.885 112.247L889.193 204.492L865.108 244.108C862.583 248.381 862.389 254.013 871.518 254.013H876.568C886.085 254.013 889.193 248.187 893.854 240.224L959.505 129.142C957.563 136.91 956.591 145.261 956.98 153.806C958.145 191.092 983.395 213.619 1020.3 213.619C1037.78 213.619 1051.76 207.016 1059.53 196.918C1058.95 207.793 1064.78 212.066 1072.55 212.066C1076.82 212.066 1079.93 210.706 1079.93 209.929L1090.61 150.116C1092.36 140.794 1088.86 136.134 1080.12 136.134Z" fill="#A1A1AA"/>
<path d="M1509.18 200.219C1509.96 201.579 1510.54 202.161 1511.51 202.161C1511.51 202.161 1511.71 203.715 1509.76 203.715C1508.6 203.715 1507.82 203.132 1506.66 200.996L1504.52 197.112H1502.58L1501.61 202.55C1501.41 203.327 1501.02 203.715 1500.25 203.715H1499.86C1499.08 203.715 1498.69 203.327 1498.89 202.356L1501.61 188.373C1501.8 187.402 1502.38 187.014 1503.35 187.014H1507.43C1511.12 187.014 1513.26 188.567 1513.26 191.286C1513.26 194.588 1511.12 196.724 1507.43 196.918L1509.18 200.219ZM1506.66 194.976C1509.18 194.976 1510.54 193.617 1510.35 191.48C1510.35 189.927 1509.18 188.956 1507.04 188.956H1504.13L1502.97 194.782H1506.66V194.976Z" fill="#A1A1AA"/>
<path d="M1506.07 182.547C1513.65 182.547 1519.67 188.762 1519.67 196.141C1519.67 203.715 1513.45 209.735 1506.07 209.735C1498.5 209.735 1492.48 203.521 1492.48 196.141C1492.28 188.762 1498.5 182.547 1506.07 182.547ZM1506.07 180.217C1497.33 180.217 1490.15 187.402 1490.15 196.141C1490.15 204.88 1497.33 212.066 1506.07 212.066C1514.81 212.066 1522 204.88 1522 196.141C1522 187.402 1514.81 180.217 1506.07 180.217Z" fill="#A1A1AA"/>
<path d="M308.052 154C308.052 239.059 239.099 308 154.026 308C68.9523 308 0 239.059 0 154C0 130.502 5.24426 108.363 14.5674 88.5549C8.35197 104.285 5.43849 120.015 5.43849 134.58C5.43849 204.298 61.7657 214.396 85.6562 214.202C122.172 213.813 164.709 195.947 200.641 162.933C200.641 162.933 195.98 188.956 194.62 196.918C193.261 204.686 198.311 211.483 206.08 211.483H209.188C217.151 211.483 222.978 204.88 224.338 196.918L237.351 124.288C238.905 116.131 233.661 109.723 225.503 109.723H152.86C144.703 109.723 137.322 113.995 135.962 122.151C135.962 122.54 135.38 124.87 135.38 125.453C134.214 133.221 139.653 139.047 147.422 139.047H185.297C184.714 139.629 184.132 140.212 183.549 140.794C157.328 165.458 124.891 179.052 98.087 179.052C71.4773 179.052 41.5656 162.156 41.5656 124.288C41.5656 45.6368 115.374 0 154.026 0C238.905 0 308.052 68.9407 308.052 154Z" fill="#A1A1AA"/>
</svg>
