<svg width="1639" height="458" viewBox="0 0 1639 458" fill="none" xmlns="http://www.w3.org/2000/svg">
<path d="M62.9017 52.2908C114.142 52.2908 165.382 52.2908 216.622 52.2908C270.69 145.567 324.403 239.196 378.471 332.472C372.11 343.424 365.749 354.377 359.388 365.33C352.674 376.283 344.546 386.529 334.298 393.949C325.817 399.955 315.922 404.548 305.321 405.255C294.366 406.315 283.765 403.135 274.223 397.482C262.562 390.416 253.374 380.17 245.953 368.863C240.299 360.03 235.352 350.844 230.051 341.658C174.57 245.555 118.736 149.1 62.9017 52.2908Z" fill="#A1A1AA"/>
<path d="M267.509 52.2908C318.749 52.2908 369.99 52.2908 421.23 52.2908C457.981 116.241 495.086 180.192 532.191 243.789C537.139 252.975 547.387 258.982 557.635 258.982C568.236 258.982 578.131 252.975 583.432 243.789C546.68 179.838 509.575 115.888 472.823 51.9375C524.064 51.9375 575.304 51.9375 626.544 51.9375C646.333 86.2093 666.123 120.481 685.912 154.753C650.221 216.583 614.529 278.061 578.838 339.891C573.537 348.724 568.59 357.557 563.289 366.39C556.575 377.343 548.094 387.236 537.846 394.655C529.011 400.662 518.763 404.902 507.808 404.902C496.853 405.255 486.252 401.722 477.417 395.716C466.109 388.296 457.275 378.05 450.207 366.743C444.906 358.264 439.959 349.431 435.012 340.598C378.824 244.849 323.343 148.747 267.509 52.2908Z" fill="#A1A1AA"/>
<path d="M744.927 52.2908C755.175 52.2908 765.069 52.2908 775.317 52.2908C780.971 74.9031 786.979 97.1622 792.633 119.774C797.58 139.56 802.528 159.346 806.415 179.485C809.949 158.993 815.249 138.5 820.197 118.008C825.497 96.1022 831.152 74.1965 836.806 52.2908C847.054 52.2908 857.302 52.2908 867.55 52.2908C876.031 84.0894 884.159 115.888 891.933 148.04C894.407 157.933 896.527 167.472 898.294 177.365C900.768 163.586 903.948 149.806 907.482 136.027C914.196 108.115 921.617 79.8496 929.038 51.9375C938.933 51.9375 948.474 51.9375 958.369 51.9375C943.527 106.702 928.331 161.819 913.489 216.583C902.888 216.583 891.933 216.583 881.332 216.583C873.557 186.905 865.783 156.873 858.715 126.841C856.242 115.888 853.768 104.935 851.648 93.629C848.821 110.235 844.58 126.487 840.339 143.093C833.979 167.472 827.264 191.851 820.904 216.583C810.302 216.583 800.054 216.583 789.453 216.583C774.611 162.173 759.769 107.055 744.927 52.2908Z" fill="#A1A1AA"/>
<path d="M1197.61 68.1901C1206.44 66.0702 1215.63 63.597 1224.46 61.4771C1224.46 73.1366 1224.46 84.4427 1224.46 96.1022C1230.47 96.1022 1236.83 96.1022 1242.84 96.1022C1242.84 103.875 1243.19 111.648 1243.19 119.421C1236.83 119.421 1230.83 119.421 1224.46 119.421C1224.46 142.74 1224.46 165.706 1224.46 189.025C1224.46 192.205 1227.29 195.031 1230.47 195.031C1234.71 195.384 1238.95 194.678 1243.19 194.324C1243.19 202.097 1243.19 209.517 1243.19 217.29C1235.77 219.41 1228.35 219.41 1220.93 219.41C1215.28 219.41 1209.27 217.643 1205.03 213.404C1199.73 208.457 1197.61 201.391 1197.61 194.324C1197.61 169.239 1197.61 144.153 1197.61 119.068C1193.01 119.068 1188.07 119.068 1183.47 119.068C1183.47 111.295 1183.47 103.522 1183.47 95.7489C1188.07 95.7489 1193.01 95.7489 1197.61 95.7489C1197.61 86.5626 1197.61 77.3764 1197.61 68.1901Z" fill="#A1A1AA"/>
<path d="M975.331 101.402C985.579 95.3955 997.947 92.9223 1009.61 93.6289C1021.27 93.9823 1032.93 97.5155 1042.12 104.582C1050.6 110.588 1056.96 119.421 1060.85 129.314C1065.8 140.974 1067.21 154.046 1066.86 166.766C1035.76 166.766 1004.31 166.766 973.211 166.766C974.624 178.072 982.045 187.965 992.293 192.205C1005.72 197.858 1023.04 195.738 1033.64 185.492C1036.47 183.018 1038.59 179.485 1040.35 176.305C1047.77 180.192 1055.2 183.725 1062.26 187.611C1056.61 199.624 1046.01 208.81 1033.64 214.11C1021.62 219.41 1007.84 220.823 994.767 218.703C982.399 216.937 970.384 211.284 961.549 202.451C952.715 193.618 946.707 181.958 944.587 169.592C942.113 155.106 943.88 139.56 950.594 126.487C956.955 115.888 965.436 107.055 975.331 101.402ZM983.812 125.074C978.158 129.667 974.624 136.734 973.564 143.8C995.12 143.8 1016.32 143.8 1037.88 143.8C1037.17 135.32 1032.58 127.547 1025.16 122.954C1013.14 114.828 995.12 115.535 983.812 125.074Z" fill="#A1A1AA"/>
<path d="M1113.5 94.3356C1127.28 92.2157 1142.48 93.9823 1154.14 102.109C1164.04 108.822 1170.4 120.128 1170.4 132.141C1161.92 133.554 1153.79 135.32 1145.31 136.734C1144.6 132.494 1144.25 128.254 1142.13 124.721C1138.95 119.421 1132.59 116.595 1126.58 115.888C1120.92 115.535 1115.27 116.241 1110.32 119.068C1107.14 121.188 1105.02 124.721 1105.38 128.607C1105.73 132.141 1108.56 134.967 1111.74 136.734C1117.04 139.56 1122.69 140.974 1128.7 142.387C1139.3 145.213 1150.25 147.687 1159.8 153.34C1166.16 157.226 1171.46 162.879 1173.93 169.946C1177.82 181.958 1175.7 196.091 1166.86 205.277C1158.03 214.464 1144.95 217.997 1132.59 218.703C1117.04 219.763 1100.78 216.23 1088.06 206.337C1079.93 200.331 1074.63 190.438 1074.63 180.192C1083.11 178.425 1091.95 177.012 1100.43 175.245C1100.78 179.838 1102.19 184.432 1105.38 187.611C1110.68 193.265 1118.8 195.031 1126.22 195.031C1131.88 195.031 1138.24 194.324 1142.83 190.438C1146.72 187.258 1148.13 181.252 1145.31 177.012C1142.83 173.479 1138.24 171.712 1134.35 169.946C1123.04 166.059 1111.38 164.292 1100.43 159.346C1093.36 156.519 1087 152.28 1082.76 145.92C1075.34 134.614 1076.4 118.361 1085.23 107.762C1092.65 100.695 1102.9 96.1022 1113.5 94.3356Z" fill="#A1A1AA"/>
<path d="M1280.3 101.755C1290.55 95.7489 1302.91 92.9223 1314.93 93.6289C1326.24 93.9823 1337.9 97.5154 1347.44 104.228C1356.28 110.588 1362.99 119.421 1367.23 129.667C1372.18 141.327 1373.59 154.046 1372.88 166.766C1341.79 166.766 1310.34 166.766 1279.24 166.766C1280.65 177.718 1287.72 187.611 1297.61 191.851C1310.34 197.504 1325.88 196.091 1337.19 187.965C1341.43 184.785 1344.61 180.898 1346.73 176.305C1354.16 179.838 1361.58 183.725 1369 187.611C1363.7 199.271 1353.45 208.104 1342.14 213.404C1320.23 223.65 1292.67 221.53 1273.23 206.691C1262.63 198.564 1255.56 186.551 1252.38 173.479C1248.85 158.286 1250.26 141.68 1256.98 127.547C1262.28 116.595 1270.4 107.762 1280.3 101.755ZM1299.73 119.421C1289.13 122.954 1281.01 132.847 1279.59 143.8C1301.15 143.8 1322.35 143.8 1343.91 143.8C1343.2 138.147 1341.08 132.847 1337.55 128.607C1328.36 117.655 1312.46 114.828 1299.73 119.421Z" fill="#A1A1AA"/>
<path d="M1514.24 94.6889C1528.02 91.5091 1542.86 92.9223 1554.88 100.695C1563.36 105.995 1569.72 114.828 1572.9 124.368C1575.37 131.434 1576.08 139.207 1576.08 146.627C1576.08 169.946 1576.08 193.618 1576.08 216.937C1566.54 216.937 1557 216.937 1547.45 216.937C1547.45 195.031 1547.45 172.772 1547.45 150.866C1547.45 143.8 1546.75 136.38 1542.86 130.374C1540.03 125.428 1535.44 121.894 1529.79 120.128C1518.48 116.948 1504.34 119.068 1497.27 128.961C1492.33 135.32 1490.56 143.8 1490.56 151.573C1490.56 173.479 1490.56 195.031 1490.56 216.937C1481.02 216.937 1471.48 216.937 1461.94 216.937C1461.94 176.659 1461.94 136.027 1461.94 95.7489C1470.06 95.7489 1478.55 95.7489 1486.67 95.7489C1486.67 101.402 1486.67 107.055 1486.67 113.061C1492.68 103.522 1503.28 97.1622 1514.24 94.6889Z" fill="#A1A1AA"/>
<path d="M1385.25 95.7489C1393.03 95.7489 1401.15 95.7489 1408.93 95.7489C1408.93 100.695 1408.93 105.995 1408.93 110.942C1412.11 105.995 1416.7 101.755 1422 99.2821C1430.84 95.0423 1440.73 94.3356 1450.27 95.7489C1450.27 104.229 1450.27 112.708 1449.92 121.188C1442.15 120.128 1433.67 119.774 1425.89 122.954C1420.94 125.074 1416.7 129.314 1414.94 134.26C1412.46 140.267 1413.52 146.98 1413.17 152.986C1413.17 174.185 1413.17 195.738 1413.52 216.937C1403.98 216.937 1394.44 216.937 1384.9 216.937C1385.25 176.659 1385.25 136.38 1385.25 95.7489Z" fill="#A1A1AA"/>
<path d="M1047.77 238.489C1052.37 237.076 1058.02 237.429 1061.91 240.256C1066.86 243.436 1070.04 249.089 1069.68 254.742C1069.33 262.161 1063.68 268.521 1056.26 269.934C1050.25 270.994 1043.53 268.521 1040 263.928C1036.82 259.688 1035.76 254.035 1037.53 249.089C1038.94 244.142 1042.83 239.902 1047.77 238.489Z" fill="#A1A1AA"/>
<path d="M757.648 337.771C757.648 304.56 757.648 271.701 757.648 238.489C767.19 238.489 777.084 238.489 786.626 238.489C786.626 271.348 786.626 304.206 786.626 336.711C786.979 348.371 789.806 361.09 798.641 369.57C806.415 376.99 818.076 379.11 828.678 378.05C837.512 377.343 846.347 373.456 852.001 366.39C859.069 357.91 861.189 346.604 861.189 336.005C861.189 303.5 861.189 270.994 861.189 238.489C870.73 238.489 880.271 238.489 889.813 238.489C889.813 266.401 889.813 294.313 889.813 322.225C889.813 331.412 890.166 340.598 888.753 349.784C886.632 363.564 881.332 377.343 871.437 387.236C862.602 396.422 850.941 401.722 838.573 403.842C823.731 406.315 807.828 405.255 794.047 399.249C783.799 394.656 774.611 387.236 768.957 377.343C761.182 366.037 758.355 351.904 757.648 337.771Z" fill="#A1A1AA"/>
<path d="M959.429 281.241C972.857 278.414 988.053 279.827 999.714 287.247C1008.2 292.547 1014.2 301.026 1017.38 310.213C1019.86 317.632 1020.92 325.759 1020.92 333.532C1020.92 356.851 1020.92 380.169 1020.92 403.488C1011.38 403.488 1001.83 403.488 992.293 403.488C992.293 382.289 992.293 361.09 992.293 339.891C992.293 332.825 991.94 325.052 988.759 318.339C986.639 313.392 982.399 309.506 977.451 307.386C971.797 304.913 965.083 304.56 959.075 305.619C952.715 306.679 946.707 309.859 942.466 315.159C937.519 321.519 935.752 329.998 935.752 337.771C935.752 359.677 935.752 381.583 935.752 403.488C926.211 403.488 916.67 403.488 907.128 403.488C907.128 363.21 907.128 322.579 907.128 282.301C915.256 282.301 923.737 282.301 931.865 282.301C931.865 287.954 931.865 293.607 931.865 299.613C937.873 289.72 948.474 283.361 959.429 281.241Z" fill="#A1A1AA"/>
<path d="M1137.18 280.181C1152.02 278.767 1167.22 281.594 1179.94 289.72C1190.54 296.08 1198.67 305.973 1203.26 317.279C1212.45 339.185 1209.27 366.39 1193.72 384.409C1184.53 395.009 1171.81 402.075 1158.03 404.548C1142.83 407.375 1126.22 405.608 1112.44 398.189C1101.49 392.536 1092.65 383.349 1087.35 372.75C1076.4 350.491 1078.52 321.872 1094.42 302.793C1105.02 289.367 1120.92 281.594 1137.18 280.181ZM1139.65 306.326C1130.47 307.386 1121.98 312.333 1116.33 319.399C1105.73 332.825 1106.08 353.317 1116.68 366.743C1123.4 375.223 1134.71 380.17 1145.66 379.463C1156.62 379.463 1167.57 373.81 1174.28 364.624C1184.18 350.844 1183.47 329.998 1171.81 317.632C1163.68 308.799 1151.31 304.56 1139.65 306.326Z" fill="#A1A1AA"/>
<path d="M1274.29 281.241C1287.72 278.414 1302.56 279.474 1314.22 286.894C1322.7 291.84 1328.71 299.966 1332.25 309.153C1335.07 316.572 1336.13 324.699 1336.13 332.825C1336.13 356.497 1336.13 380.169 1336.13 403.488C1326.59 403.488 1317.05 403.488 1307.51 403.488C1307.51 381.229 1307.51 358.617 1307.51 336.358C1307.51 328.938 1306.45 321.519 1302.21 315.159C1299.03 310.213 1293.73 307.033 1288.07 305.973C1282.07 304.56 1275.7 304.913 1270.05 306.679C1264.4 308.446 1259.45 311.979 1256.27 316.926C1252.03 322.932 1250.61 330.705 1250.61 337.771C1250.61 359.677 1250.61 381.583 1250.61 403.488C1241.07 403.488 1231.53 403.488 1221.99 403.488C1221.99 363.21 1221.99 322.579 1221.99 282.301C1230.12 282.301 1238.6 282.301 1246.73 282.301C1246.73 287.954 1246.73 293.607 1246.73 299.613C1252.73 289.72 1263.34 283.714 1274.29 281.241Z" fill="#A1A1AA"/>
<path d="M1038.94 282.301C1048.48 282.301 1058.02 282.301 1067.56 282.301C1067.56 322.579 1067.56 363.21 1067.56 403.488C1058.02 403.488 1048.48 403.488 1038.94 403.488C1038.94 362.857 1038.94 322.579 1038.94 282.301Z" fill="#A1A1AA"/>
</svg>
